<?xml version="1.0" encoding="UTF-8"?>
<!DOCTYPE svg PUBLIC "-//W3C//DTD SVG 1.1//EN" "http://www.w3.org/Graphics/SVG/1.1/DTD/svg11.dtd">
<!-- Creator: CorelDRAW 2019 (64 Bit) -->
<svg xmlns="http://www.w3.org/2000/svg" xml:space="preserve" width="48.7772mm" height="32.9016mm" version="1.1" style="shape-rendering:geometricPrecision; text-rendering:geometricPrecision; image-rendering:optimizeQuality; fill-rule:evenodd; clip-rule:evenodd"
viewBox="0 0 4877.72 3290.16"
 xmlns:xlink="http://www.w3.org/1999/xlink">
 <defs>
  <style type="text/css">
   <![CDATA[
    .fil2 {fill:none}
    .fil3 {fill:#FEFEFE}
    .fil0 {fill:#373435}
    .fil1 {fill:#F58634}
   ]]>
  </style>
 </defs>
 <g id="Layer_x0020_1">
  <metadata id="CorelCorpID_0Corel-Layer"/>
  <path class="fil0" d="M1992.4 652.55c-68.09,-61.07 -129.81,-138.33 -159.44,-222.29 -14.07,-39.83 -28.13,-79.67 -42.19,-119.5 -10.51,-29.77 -9.23,-72.63 28.56,-74.25l148.88 -6.38c218.89,-9.39 438.74,-95.53 649.77,-150.08 400.28,-103.46 792.69,-105.59 1195.09,-12.4 133.42,30.88 263.88,72.01 394.16,113.89 65.05,20.92 154.52,54.16 221.96,58.13 23.64,1.39 47.27,2.79 70.91,4.18 56.18,3.3 75.43,5.3 79.3,32.46 17.97,125.8 -43.33,260.03 -148.58,331.97 4.37,11.66 8.34,23.46 11.92,35.38 82.53,274.4 -41.38,587.38 -164.91,830.87 -31.28,61.65 -66.35,121.32 -103.28,179.74 -80.59,127.49 -169.33,251.6 -263.98,369.17 6.39,78.98 14.46,157.84 19.14,236.96 6.82,115.01 23.89,325.64 -54.07,417.59 -45.6,53.77 -109.51,82.4 -176.93,96.41l96.11 471.51 -138.93 35.22c-244.36,61.93 -827.01,-211.23 -1054.33,-314.12 -166.83,-75.51 -332.59,-153.62 -500.13,-227.49 -121.68,-53.65 -258.37,-114.21 -386.84,-148.32 -91.42,-24.28 -184.09,-42.94 -277.74,-56.22 -441.52,-62.56 -921.26,-5.43 -1362.91,39.22l-73.94 7.47 159.2 -234.26c104.19,-153.31 230.48,-302.39 353.36,-441 161.84,-182.55 332.61,-358.92 509.51,-526.91 169.3,-160.78 347.15,-317.13 534.09,-457.18 130.82,-98.02 283.05,-201.86 436.24,-269.77z"/>
  <path class="fil1" d="M2058.7 662.59c-88.27,-67.88 -161.92,-155.68 -193.05,-243.86l-51.98 -147.27 156.03 -6.69c220.12,-9.43 444.52,-96.24 656.96,-151.15 396.11,-102.38 781.12,-104.25 1178.58,-12.2 133.26,30.86 261.39,71.33 391.38,113.13 64.94,20.87 162.96,55.76 230.53,59.74l120.21 7.08 -12 119.81c-8.76,87.57 -73.59,148.26 -147.41,193.55 8.32,19.09 15.51,38.75 21.58,58.92 79.49,264.3 -43.9,571.16 -162.63,805.19 -30.74,60.59 -65.37,119.49 -101.66,176.89 -80.3,127.07 -174.17,258.09 -270.34,376.67 6.52,83.27 15.23,166.36 20.19,250.05 6.03,101.83 23.06,311.78 -45.9,393.11 -46.69,55.07 -117.08,80.71 -191.6,90.68l96.65 474.18 -106.87 27.09c-359.15,91.07 -1479.45,-571.8 -1923.88,-689.83 -496.68,-131.9 -970.19,-87.02 -1653.04,-17.99l117.43 -172.79c307.66,-452.78 1289.19,-1480.59 1870.82,-1704.31z"/>
  <path class="fil0" d="M554.38 2242.22c288.1,-423.98 1104.3,-1406.25 1683.76,-1511.63 -93.43,404.76 -41.93,963.85 481.46,1127.4 -369.39,-267.68 -502.92,-651.41 -383.74,-1188.02 -130.96,-21.05 -314.93,-158.62 -361.21,-289.72 229.15,-9.82 431.49,-90.25 680.93,-154.72 905.64,-234.07 1502.34,148.68 1764.77,164.14 -5.65,56.49 -73.95,103.43 -194.72,158.97 202.37,247.01 29.31,638.88 -81.81,857.91 -131.69,259.62 -387.55,568.15 -387.55,568.15 6.77,101.97 57.64,543.75 4.76,606.11 -40.11,47.3 -139.1,66.17 -294.47,48.59 -199.41,-22.56 -248.31,-97.82 -270.9,-220.1 -22.58,-122.29 -30.1,-312.3 -30.1,-312.3 0,0 -37.63,316.06 1.88,445.87 39.51,129.8 120.4,169.3 231.4,184.36 111,15.05 139.21,11.29 139.21,11.29l80.91 396.95c-218.47,55.4 -894.61,-277.96 -998.99,-344.27 -18.48,-194.36 51.43,-356.39 129.82,-507.95 -126.21,124.31 -226.94,294.57 -223.88,491.02 -467.78,-300.28 -885.9,-453.15 -1489.99,-513.62 149.38,-323.97 290.02,-494.78 560.62,-728.04 -417.24,227.99 -485.58,420.88 -745,720.52l-297.16 -10.91z"/>
  <path class="fil2" d="M2081.59 404.78c0,0 72.24,22.59 106.86,56.45 34.62,33.86 80.52,69.23 80.52,69.23 0,0 -99.34,-43.66 -141.48,-65.48 -42.13,-21.82 -45.9,-60.2 -45.9,-60.2z"/>
  <path class="fil3" d="M2868.67 463.48c0,0 61.7,-62.47 194.15,-88.8 132.45,-26.34 165.55,57.94 240.81,100.84 75.25,42.9 200.93,62.46 200.93,62.46 0,0 -73,1.5 -130.19,14.3 -57.19,12.79 -96.33,27.85 -173.09,-8.27 -76.75,-36.13 -102.34,-58.71 -102.34,-58.71 0,0 36.86,-18.05 74.49,-21.82 37.64,-3.76 61.72,-3.76 61.72,-3.76 0,0 -87.3,-27.09 -200.18,-22.57 -112.88,4.51 -166.3,26.33 -166.3,26.33z"/>
  <path class="fil3" d="M3737.82 544.01c0,0 109.87,-16.56 161.04,-61.71 51.17,-45.15 133.96,-54.19 182.12,-48.17 48.15,6.02 114.38,70.74 114.38,70.74 0,0 -93.33,-31.6 -155.03,-31.6 -61.71,0 -83.53,5.26 -83.53,5.26l88.04 30.11c0,0 -35.37,47.39 -142.98,54.92 -107.61,7.53 -164.04,-19.55 -164.04,-19.55z"/>
  <path class="fil3" d="M3499.26 1614.1c0,0 -37.62,-99.34 -63.21,-225.76 -25.59,-126.42 -21.07,-215.22 -21.07,-215.22 0,0 139.98,-58.69 296.5,-64.71 156.52,-6.02 281.43,52.67 281.43,52.67 0,0 9.04,173.08 -13.54,249.84 -22.58,76.76 -55.69,188.13 -55.69,188.13 0,0 -22.58,-210.7 -30.1,-275.42 -7.52,-64.72 -25.58,-144.48 -25.58,-144.48l-21.07 108.36c0,0 -22.57,-59.44 -65.46,-82.78 -42.89,-23.33 -129.45,-10.54 -150.52,6.77 -21.07,17.32 -38.37,83.54 -39.12,79.02 -0.75,-4.51 -46.67,-117.39 -46.67,-117.39 0,0 -24.82,151.26 -27.84,197.17 -3.01,45.9 -18.06,243.8 -18.06,243.8z"/>
  <path class="fil3" d="M3381.11 2216.87c0,0 33.12,177.59 39.89,191.89 6.77,14.3 14.49,16.75 14.49,16.75 0,0 4.13,-17.5 8.09,-19.19 3.96,-1.7 164.24,-7.34 171.01,1.31 6.77,8.66 20.32,24.09 20.32,24.09 0,0 18.06,-24.09 21.82,-48.92 3.77,-24.84 28.23,-173.82 28.23,-173.82 0,0 27.84,183.63 27.84,215.23 0,31.6 -84.27,76.75 -189.63,75.25 -105.36,-1.51 -174.58,-27.09 -179.1,-88.8 -4.52,-61.71 37.04,-193.79 37.04,-193.79z"/>
  <path class="fil3" d="M2049.28 895.37c0,0 57.93,-39.86 298.75,-113.62 240.82,-73.75 477.1,-86.54 647.17,-79.02 170.07,7.52 302.51,60.19 302.51,60.19 0,0 -46.67,28.59 -58.7,51.18 -12.04,22.58 -12.04,19.56 -12.04,19.56 0,0 -269.41,-67.71 -522.25,-54.17 -252.85,13.54 -655.44,115.88 -655.44,115.88z"/>
  <path class="fil3" d="M1997.36 1178.32c0,0 219.73,-139.97 511.7,-227.26 291.98,-87.29 683.29,-51.17 683.29,-51.17 0,0 -9.03,22.58 -10.53,45.15 -1.5,22.57 -3.02,45.15 -3.02,45.15 0,0 -350.66,-37.63 -651.67,22.58 -301.01,60.2 -529.77,165.55 -529.77,165.55z"/>
  <path class="fil3" d="M1961.24 1461.26c0,0 173.07,-158.02 507.19,-284.44 334.12,-126.43 711.89,-127.93 711.89,-127.93l40.63 81.27c0,0 -386.79,-1.51 -723.92,100.83 -337.13,102.34 -535.79,230.27 -535.79,230.27z"/>
  <path class="fil3" d="M3534.64 728.37c0,0 67.72,-68.46 171.57,-89.54 103.84,-21.08 264.14,88.79 264.14,88.79 0,0 -83.54,0.75 -136.21,72.24 -52.67,71.49 -60.96,138.47 -60.96,138.47 0,0 -33.86,-98.58 -111.37,-148.25 -77.51,-49.67 -127.17,-61.71 -127.17,-61.71z"/>
  <path class="fil0" d="M4468.68 800.16l7.96 0.11c158.78,3.01 326.6,86.55 326.6,86.55 -91.75,-87.32 -212.53,-126.76 -338.77,-138.14 2.05,17.08 3.42,34.24 4.21,51.48zm-31.49 271.93c172.64,21.11 440.53,125.5 440.53,125.5 0,0 -120.4,-114.39 -305.51,-162.55 -40.93,-10.65 -82.33,-16.83 -122,-20.02 -3.84,19.07 -8.21,38.11 -13.02,57.07zm26.45 -141.14c175.7,11.79 351.63,69.47 351.63,69.47 0,0 -117.4,-104.61 -275.43,-121.16 -23.35,-2.44 -47.4,-3.95 -71.47,-4.74 -0.95,18.78 -2.56,37.6 -4.73,56.43z"/>
  <path class="fil3" d="M4429.17 746.21c2.33,17.86 3.91,35.85 4.76,53.94 -142.26,1.78 -268.1,24.21 -268.1,24.21l-37.62 -52.69c94.23,-18.63 198.66,-30.54 300.96,-25.46zm4.49 127.62c-0.97,18.45 -2.58,36.91 -4.77,55.42 -159.72,-4.76 -232.2,36.55 -232.2,36.55 0,0 0,-13.54 0,-33.1 0,-19.57 -6.02,-43.65 -6.02,-43.65 0,0 116.62,-16.07 242.99,-15.22zm-18.43 139.08c-3.86,18.72 -8.22,37.4 -13.04,56.01 -168.48,-9.01 -251.4,31.58 -251.4,31.58 0,0 1.52,-0.75 18.07,-23.32 16.55,-22.57 23.32,-47.42 23.32,-47.42 0,0 99.09,-21.78 223.05,-16.85z"/>
 </g>
</svg>
