<?xml version="1.0" encoding="UTF-8"?>
<!DOCTYPE svg PUBLIC "-//W3C//DTD SVG 1.1//EN" "http://www.w3.org/Graphics/SVG/1.1/DTD/svg11.dtd">
<!-- Creator: CorelDRAW 2019 (64 Bit) -->
<svg xmlns="http://www.w3.org/2000/svg" xml:space="preserve" width="131px" height="88px" version="1.1" style="shape-rendering:geometricPrecision; text-rendering:geometricPrecision; image-rendering:optimizeQuality; fill-rule:evenodd; clip-rule:evenodd"
viewBox="0 0 130.89 87.93"
 xmlns:xlink="http://www.w3.org/1999/xlink">
 <defs>
  <style type="text/css">
   <![CDATA[
    .fil7 {fill:none}
    .fil1 {fill:#FEFEFE}
    .fil2 {fill:#CDD8BB}
    .fil3 {fill:#88AB9F}
    .fil5 {fill:#88AB9F}
    .fil4 {fill:#6BA19B}
    .fil6 {fill:#6BA19B}
    .fil0 {fill:#29424D}
   ]]>
  </style>
    <clipPath id="id0">
     <path d="M3.32 86.46l-0.56 -1.37 -1.72 0 -0.49 1.37 -0.55 0 1.73 -4.3 0.41 0 1.73 4.3 -0.55 0zm-0.7 -1.81l-0.48 -1.32c-0.07,-0.19 -0.14,-0.39 -0.21,-0.63 -0.07,0.2 -0.13,0.39 -0.2,0.63l-0.49 1.32 1.38 0zm3.6 0.93c0,0.34 -0.07,0.54 -0.35,0.73 -0.21,0.15 -0.55,0.25 -0.9,0.25 -0.48,0 -0.83,-0.1 -1.03,-0.25l0 -0.44c0.14,0.1 0.34,0.15 0.48,0.2 0.21,0.05 0.35,0.05 0.55,0.05 0.21,0 0.42,-0.05 0.56,-0.1 0.13,-0.1 0.2,-0.19 0.2,-0.39 0,-0.1 -0.07,-0.24 -0.14,-0.29 -0.13,-0.1 -0.34,-0.2 -0.62,-0.34 -0.34,-0.1 -0.55,-0.2 -0.69,-0.3 -0.14,-0.1 -0.2,-0.19 -0.27,-0.29 -0.07,-0.1 -0.07,-0.2 -0.07,-0.39 0,-0.25 0.07,-0.44 0.34,-0.59 0.21,-0.14 0.49,-0.24 0.83,-0.24 0.35,0 0.69,0.1 1.04,0.19l-0.14 0.44c-0.35,-0.14 -0.62,-0.24 -0.9,-0.24 -0.28,0 -0.41,0.05 -0.55,0.15 -0.14,0.04 -0.14,0.14 -0.14,0.29 0,0.1 0,0.15 0.07,0.19 0,0.1 0.07,0.15 0.21,0.2 0.07,0.05 0.27,0.15 0.55,0.24 0.34,0.15 0.62,0.3 0.76,0.39 0.14,0.15 0.21,0.35 0.21,0.54zm2.62 0c0,0.34 -0.07,0.54 -0.28,0.73 -0.27,0.15 -0.55,0.25 -0.96,0.25 -0.42,0 -0.76,-0.1 -1.04,-0.25l0 -0.44c0.21,0.1 0.35,0.15 0.55,0.2 0.14,0.05 0.35,0.05 0.49,0.05 0.27,0 0.48,-0.05 0.62,-0.1 0.14,-0.1 0.21,-0.19 0.21,-0.39 0,-0.1 -0.07,-0.24 -0.21,-0.29 -0.07,-0.1 -0.28,-0.2 -0.62,-0.34 -0.28,-0.1 -0.55,-0.2 -0.62,-0.3 -0.14,-0.1 -0.28,-0.19 -0.28,-0.29 -0.07,-0.1 -0.14,-0.2 -0.14,-0.39 0,-0.25 0.14,-0.44 0.35,-0.59 0.2,-0.14 0.48,-0.24 0.89,-0.24 0.35,0 0.7,0.1 1.04,0.19l-0.21 0.44c-0.34,-0.14 -0.62,-0.24 -0.89,-0.24 -0.21,0 -0.42,0.05 -0.49,0.15 -0.14,0.04 -0.2,0.14 -0.2,0.29 0,0.1 0,0.15 0.06,0.19 0.07,0.1 0.14,0.15 0.21,0.2 0.07,0.05 0.28,0.15 0.55,0.24 0.42,0.15 0.69,0.3 0.83,0.39 0.14,0.15 0.14,0.35 0.14,0.54zm1.93 0.98c-0.48,0 -0.82,-0.15 -1.1,-0.44 -0.28,-0.29 -0.41,-0.73 -0.41,-1.22 0,-0.54 0.13,-0.93 0.41,-1.27 0.21,-0.3 0.55,-0.44 1.04,-0.44 0.34,0 0.69,0.14 0.96,0.39 0.21,0.29 0.35,0.63 0.35,1.07l0 0.3 -2.28 0c0,0.39 0.14,0.68 0.34,0.88 0.14,0.19 0.42,0.29 0.76,0.29 0.35,0 0.69,-0.1 1.04,-0.25l0 0.44c-0.21,0.1 -0.35,0.15 -0.48,0.2 -0.21,0 -0.35,0.05 -0.63,0.05zm-0.13 -2.98c-0.21,0 -0.42,0.1 -0.62,0.29 -0.14,0.15 -0.21,0.39 -0.28,0.69l1.73 0c0,-0.3 -0.07,-0.54 -0.21,-0.74 -0.14,-0.14 -0.35,-0.24 -0.62,-0.24zm4.07 2c0,0.34 -0.14,0.54 -0.34,0.73 -0.28,0.15 -0.56,0.25 -0.97,0.25 -0.41,0 -0.76,-0.1 -1.04,-0.25l0 -0.44c0.21,0.1 0.35,0.15 0.56,0.2 0.13,0.05 0.34,0.05 0.48,0.05 0.28,0 0.48,-0.05 0.62,-0.1 0.14,-0.1 0.21,-0.19 0.21,-0.39 0,-0.1 -0.07,-0.24 -0.21,-0.29 -0.07,-0.1 -0.28,-0.2 -0.62,-0.34 -0.28,-0.1 -0.48,-0.2 -0.62,-0.3 -0.14,-0.1 -0.21,-0.19 -0.28,-0.29 -0.07,-0.1 -0.14,-0.2 -0.14,-0.39 0,-0.25 0.14,-0.44 0.35,-0.59 0.21,-0.14 0.48,-0.24 0.9,-0.24 0.34,0 0.69,0.1 1.03,0.19l-0.2 0.44c-0.35,-0.14 -0.63,-0.24 -0.9,-0.24 -0.21,0 -0.42,0.05 -0.49,0.15 -0.13,0.04 -0.2,0.14 -0.2,0.29 0,0.1 0,0.15 0.07,0.19 0.07,0.1 0.13,0.15 0.2,0.2 0.14,0.05 0.28,0.15 0.56,0.24 0.41,0.15 0.69,0.3 0.82,0.39 0.14,0.15 0.21,0.35 0.21,0.54zm2.63 0c0,0.34 -0.14,0.54 -0.35,0.73 -0.21,0.15 -0.55,0.25 -0.97,0.25 -0.41,0 -0.76,-0.1 -0.96,-0.25l0 -0.44c0.14,0.1 0.27,0.15 0.48,0.2 0.21,0.05 0.35,0.05 0.55,0.05 0.21,0 0.42,-0.05 0.56,-0.1 0.13,-0.1 0.2,-0.19 0.2,-0.39 0,-0.1 -0.07,-0.24 -0.13,-0.29 -0.14,-0.1 -0.35,-0.2 -0.7,-0.34 -0.27,-0.1 -0.48,-0.2 -0.62,-0.3 -0.14,-0.1 -0.2,-0.19 -0.27,-0.29 -0.07,-0.1 -0.07,-0.2 -0.07,-0.39 0,-0.25 0.07,-0.44 0.27,-0.59 0.21,-0.14 0.56,-0.24 0.9,-0.24 0.35,0 0.69,0.1 1.04,0.19l-0.21 0.44c-0.28,-0.14 -0.62,-0.24 -0.83,-0.24 -0.27,0 -0.41,0.05 -0.55,0.15 -0.14,0.04 -0.21,0.14 -0.21,0.29 0,0.1 0.07,0.15 0.07,0.19 0.07,0.1 0.14,0.15 0.28,0.2 0.07,0.05 0.27,0.15 0.55,0.24 0.35,0.15 0.62,0.3 0.76,0.39 0.14,0.15 0.21,0.35 0.21,0.54zm3.38 -0.73c0,0.54 -0.14,0.93 -0.41,1.27 -0.28,0.29 -0.62,0.44 -1.11,0.44 -0.27,0 -0.55,-0.1 -0.76,-0.25 -0.27,-0.09 -0.41,-0.29 -0.55,-0.58 -0.14,-0.25 -0.21,-0.54 -0.21,-0.88 0,-0.49 0.14,-0.93 0.42,-1.22 0.27,-0.3 0.62,-0.44 1.1,-0.44 0.49,0 0.83,0.14 1.11,0.44 0.27,0.29 0.41,0.73 0.41,1.22zm-2.49 0c0,0.44 0.07,0.73 0.21,0.98 0.21,0.19 0.42,0.29 0.76,0.29 0.35,0 0.55,-0.1 0.76,-0.29 0.14,-0.25 0.21,-0.54 0.21,-0.98 0,-0.39 -0.07,-0.73 -0.21,-0.93 -0.21,-0.19 -0.41,-0.29 -0.76,-0.29 -0.34,0 -0.55,0.1 -0.76,0.29 -0.14,0.2 -0.21,0.54 -0.21,0.93zm4.56 -1.66c0.14,0 0.28,0 0.42,0.05l-0.07 0.44c-0.14,-0.05 -0.28,-0.05 -0.42,-0.05 -0.2,0 -0.48,0.1 -0.62,0.34 -0.2,0.2 -0.27,0.44 -0.27,0.78l0 1.71 -0.49 0 0 -3.22 0.35 0 0.07 0.63 0.07 0c0.07,-0.24 0.2,-0.39 0.41,-0.49 0.14,-0.14 0.35,-0.19 0.55,-0.19zm1.25 3.27l-0.49 0 0 -3.22 0.49 0 0 3.22zm-0.56 -4.1c0,-0.1 0.07,-0.2 0.07,-0.25 0.07,-0.04 0.14,-0.04 0.21,-0.04 0.14,0 0.21,0 0.21,0.04 0.07,0.05 0.14,0.15 0.14,0.25 0,0.14 -0.07,0.19 -0.14,0.24 0,0.05 -0.07,0.1 -0.21,0.1 -0.07,0 -0.14,-0.05 -0.21,-0.1 0,-0.05 -0.07,-0.1 -0.07,-0.24zm3.32 4.1l-0.07 -0.44 0 0c-0.21,0.2 -0.35,0.34 -0.48,0.39 -0.21,0.1 -0.42,0.15 -0.62,0.15 -0.35,0 -0.56,-0.1 -0.76,-0.29 -0.21,-0.15 -0.28,-0.4 -0.28,-0.69 0,-0.63 0.55,-0.98 1.59,-1.02l0.55 0 0 -0.2c0,-0.29 -0.07,-0.44 -0.21,-0.59 -0.07,-0.09 -0.27,-0.19 -0.48,-0.19 -0.28,0 -0.62,0.1 -0.97,0.29l-0.14 -0.39c0.21,-0.1 0.35,-0.15 0.56,-0.19 0.2,-0.05 0.34,-0.1 0.55,-0.1 0.41,0 0.69,0.1 0.9,0.24 0.14,0.2 0.27,0.49 0.27,0.83l0 2.2 -0.41 0zm-1.11 -0.34c0.35,0 0.56,-0.05 0.76,-0.25 0.14,-0.14 0.28,-0.39 0.28,-0.68l0 -0.29 -0.55 0c-0.35,0.05 -0.62,0.1 -0.83,0.19 -0.14,0.1 -0.28,0.3 -0.28,0.49 0,0.2 0.07,0.34 0.21,0.39 0.07,0.1 0.28,0.15 0.41,0.15zm4.98 0.44c-0.49,0 -0.83,-0.15 -1.11,-0.44 -0.27,-0.29 -0.41,-0.73 -0.41,-1.22 0,-0.54 0.07,-0.93 0.34,-1.27 0.28,-0.3 0.62,-0.44 1.04,-0.44 0.41,0 0.76,0.14 0.97,0.39 0.27,0.29 0.34,0.63 0.34,1.07l0 0.3 -2.21 0c0,0.39 0.07,0.68 0.28,0.88 0.2,0.19 0.41,0.29 0.76,0.29 0.34,0 0.69,-0.1 1.03,-0.25l0 0.44c-0.13,0.1 -0.34,0.15 -0.48,0.2 -0.14,0 -0.35,0.05 -0.55,0.05zm-0.14 -2.98c-0.28,0 -0.48,0.1 -0.62,0.29 -0.14,0.15 -0.28,0.39 -0.28,0.69l1.73 0c0,-0.3 -0.07,-0.54 -0.21,-0.74 -0.14,-0.14 -0.34,-0.24 -0.62,-0.24zm5.18 -1.03c-0.48,0 -0.83,0.15 -1.11,0.49 -0.27,0.29 -0.41,0.73 -0.41,1.27 0,0.59 0.14,1.03 0.41,1.32 0.21,0.29 0.63,0.44 1.11,0.44 0.28,0 0.62,-0.05 1.04,-0.15l0 0.44c-0.28,0.1 -0.7,0.2 -1.11,0.2 -0.62,0 -1.1,-0.2 -1.45,-0.59 -0.41,-0.39 -0.55,-0.93 -0.55,-1.66 0,-0.44 0.07,-0.83 0.27,-1.17 0.14,-0.34 0.35,-0.59 0.69,-0.78 0.35,-0.15 0.69,-0.25 1.11,-0.25 0.48,0 0.83,0.1 1.17,0.25l-0.2 0.44c-0.28,-0.15 -0.63,-0.25 -0.97,-0.25zm4.49 2.3c0,0.54 -0.14,0.93 -0.42,1.27 -0.27,0.29 -0.62,0.44 -1.1,0.44 -0.28,0 -0.55,-0.1 -0.76,-0.25 -0.28,-0.09 -0.41,-0.29 -0.55,-0.58 -0.14,-0.25 -0.21,-0.54 -0.21,-0.88 0,-0.49 0.14,-0.93 0.41,-1.22 0.28,-0.3 0.63,-0.44 1.11,-0.44 0.48,0 0.83,0.14 1.1,0.44 0.28,0.29 0.42,0.73 0.42,1.22zm-2.49 0c0,0.44 0.07,0.73 0.21,0.98 0.21,0.19 0.41,0.29 0.76,0.29 0.34,0 0.55,-0.1 0.76,-0.29 0.14,-0.25 0.21,-0.54 0.21,-0.98 0,-0.39 -0.07,-0.73 -0.21,-0.93 -0.21,-0.19 -0.42,-0.29 -0.76,-0.29 -0.35,0 -0.55,0.1 -0.76,0.29 -0.14,0.2 -0.21,0.54 -0.21,0.93zm5.32 1.61l0 -2.05c0,-0.29 -0.07,-0.49 -0.21,-0.59 -0.13,-0.14 -0.27,-0.19 -0.55,-0.19 -0.34,0 -0.62,0.05 -0.76,0.24 -0.14,0.2 -0.21,0.49 -0.21,0.93l0 1.66 -0.48 0 0 -3.22 0.35 0 0.06 0.44 0.07 0c0.07,-0.15 0.21,-0.25 0.42,-0.35 0.21,-0.09 0.41,-0.14 0.62,-0.14 0.35,0 0.69,0.1 0.9,0.29 0.14,0.2 0.27,0.49 0.27,0.88l0 2.1 -0.48 0zm3.32 -0.88c0,0.34 -0.07,0.54 -0.35,0.73 -0.21,0.15 -0.55,0.25 -0.9,0.25 -0.48,0 -0.76,-0.1 -1.03,-0.25l0 -0.44c0.13,0.1 0.34,0.15 0.48,0.2 0.21,0.05 0.35,0.05 0.55,0.05 0.21,0 0.42,-0.05 0.56,-0.1 0.13,-0.1 0.2,-0.19 0.2,-0.39 0,-0.1 0,-0.24 -0.14,-0.29 -0.13,-0.1 -0.34,-0.2 -0.62,-0.34 -0.34,-0.1 -0.55,-0.2 -0.69,-0.3 -0.07,-0.1 -0.21,-0.19 -0.27,-0.29 -0.07,-0.1 -0.07,-0.2 -0.07,-0.39 0,-0.25 0.07,-0.44 0.34,-0.59 0.21,-0.14 0.49,-0.24 0.83,-0.24 0.35,0 0.69,0.1 1.04,0.19l-0.14 0.44c-0.35,-0.14 -0.62,-0.24 -0.9,-0.24 -0.28,0 -0.41,0.05 -0.55,0.15 -0.07,0.04 -0.14,0.14 -0.14,0.29 0,0.1 0,0.15 0.07,0.19 0,0.1 0.07,0.15 0.21,0.2 0.07,0.05 0.27,0.15 0.55,0.24 0.41,0.15 0.62,0.3 0.76,0.39 0.14,0.15 0.21,0.35 0.21,0.54zm1.03 -2.34l0 2.1c0,0.29 0.07,0.49 0.21,0.58 0.07,0.15 0.28,0.2 0.55,0.2 0.35,0 0.55,-0.1 0.76,-0.25 0.14,-0.19 0.21,-0.48 0.21,-0.92l0 -1.71 0.48 0 0 3.22 -0.41 0 -0.07 -0.39 0 0c-0.14,0.15 -0.28,0.24 -0.42,0.34 -0.2,0.1 -0.41,0.15 -0.62,0.15 -0.41,0 -0.69,-0.1 -0.9,-0.29 -0.2,-0.2 -0.27,-0.49 -0.27,-0.88l0 -2.15 0.48 0zm3.52 3.22l-0.48 0 0 -4.54 0.48 0 0 4.54zm1.8 -0.34c0.14,0 0.21,0 0.28,0 0.07,0 0.13,-0.05 0.2,-0.05l0 0.39c-0.07,0 -0.13,0.05 -0.2,0.05 -0.14,0 -0.21,0.05 -0.35,0.05 -0.62,0 -0.9,-0.34 -0.9,-1.03l0 -1.9 -0.48 0 0 -0.25 0.48 -0.19 0.21 -0.69 0.28 0 0 0.74 0.96 0 0 0.39 -0.96 0 0 1.9c0,0.2 0.07,0.34 0.14,0.44 0.06,0.1 0.2,0.15 0.34,0.15zm3.66 -1.27c0,0.54 -0.14,0.93 -0.34,1.27 -0.28,0.29 -0.69,0.44 -1.11,0.44 -0.34,0 -0.55,-0.1 -0.83,-0.25 -0.21,-0.09 -0.34,-0.29 -0.48,-0.58 -0.14,-0.25 -0.21,-0.54 -0.21,-0.88 0,-0.49 0.14,-0.93 0.42,-1.22 0.27,-0.3 0.62,-0.44 1.1,-0.44 0.42,0 0.83,0.14 1.11,0.44 0.2,0.29 0.34,0.73 0.34,1.22zm-2.42 0c0,0.44 0.07,0.73 0.21,0.98 0.21,0.19 0.42,0.29 0.76,0.29 0.28,0 0.55,-0.1 0.69,-0.29 0.21,-0.25 0.28,-0.54 0.28,-0.98 0,-0.39 -0.07,-0.73 -0.28,-0.93 -0.14,-0.19 -0.41,-0.29 -0.69,-0.29 -0.34,0 -0.62,0.1 -0.76,0.29 -0.14,0.2 -0.21,0.54 -0.21,0.93zm4.56 -1.66c0.14,0 0.28,0 0.35,0.05l-0.07 0.44c-0.14,-0.05 -0.21,-0.05 -0.35,-0.05 -0.27,0 -0.48,0.1 -0.69,0.34 -0.14,0.2 -0.27,0.44 -0.27,0.78l0 1.71 -0.49 0 0 -3.22 0.42 0 0.07 0.63 0 0c0.13,-0.24 0.27,-0.39 0.48,-0.49 0.14,-0.14 0.35,-0.19 0.55,-0.19zm1.25 3.27l-0.49 0 0 -3.22 0.49 0 0 3.22zm-0.56 -4.1c0,-0.1 0,-0.2 0.07,-0.25 0.07,-0.04 0.14,-0.04 0.21,-0.04 0.07,0 0.14,0 0.21,0.04 0.07,0.05 0.07,0.15 0.07,0.25 0,0.14 0,0.19 -0.07,0.24 -0.07,0.05 -0.14,0.1 -0.21,0.1 -0.07,0 -0.14,-0.05 -0.21,-0.1 -0.07,-0.05 -0.07,-0.1 -0.07,-0.24zm3.32 4.1l-0.07 -0.44 -0.07 0c-0.14,0.2 -0.28,0.34 -0.48,0.39 -0.14,0.1 -0.35,0.15 -0.56,0.15 -0.34,0 -0.62,-0.1 -0.76,-0.29 -0.2,-0.15 -0.27,-0.4 -0.27,-0.69 0,-0.63 0.48,-0.98 1.59,-1.02l0.55 0 0 -0.2c0,-0.29 -0.07,-0.44 -0.21,-0.59 -0.07,-0.09 -0.27,-0.19 -0.48,-0.19 -0.28,0 -0.62,0.1 -0.97,0.29l-0.14 -0.39c0.14,-0.1 0.35,-0.15 0.56,-0.19 0.13,-0.05 0.34,-0.1 0.55,-0.1 0.41,0 0.69,0.1 0.83,0.24 0.2,0.2 0.27,0.49 0.27,0.83l0 2.2 -0.34 0zm-1.11 -0.34c0.35,0 0.56,-0.05 0.76,-0.25 0.14,-0.14 0.21,-0.39 0.21,-0.68l0 -0.29 -0.48 0c-0.35,0.05 -0.69,0.1 -0.83,0.19 -0.21,0.1 -0.28,0.3 -0.28,0.49 0,0.2 0.07,0.34 0.21,0.39 0.07,0.1 0.21,0.15 0.41,0.15zm4.98 0.44c-0.49,0 -0.9,-0.15 -1.18,-0.44 -0.27,-0.29 -0.41,-0.73 -0.41,-1.22 0,-0.54 0.14,-0.93 0.41,-1.27 0.28,-0.3 0.62,-0.44 1.04,-0.44 0.41,0 0.69,0.14 0.97,0.39 0.2,0.29 0.34,0.63 0.34,1.07l0 0.3 -2.21 0c0,0.39 0.07,0.68 0.28,0.88 0.13,0.19 0.41,0.29 0.76,0.29 0.34,0 0.69,-0.1 1.03,-0.25l0 0.44c-0.2,0.1 -0.34,0.15 -0.48,0.2 -0.14,0 -0.35,0.05 -0.55,0.05zm-0.14 -2.98c-0.28,0 -0.49,0.1 -0.62,0.29 -0.14,0.15 -0.28,0.39 -0.28,0.69l1.66 0c0,-0.3 -0.07,-0.54 -0.21,-0.74 -0.14,-0.14 -0.28,-0.24 -0.55,-0.24zm6.08 2.88l0 -2.1c0,-0.24 -0.07,-0.44 -0.21,-0.54 -0.07,-0.14 -0.28,-0.19 -0.48,-0.19 -0.35,0 -0.56,0.05 -0.69,0.24 -0.14,0.2 -0.21,0.44 -0.21,0.78l0 1.81 -0.49 0 0 -2.1c0,-0.24 -0.06,-0.44 -0.2,-0.54 -0.07,-0.14 -0.28,-0.19 -0.49,-0.19 -0.34,0 -0.55,0.05 -0.69,0.24 -0.14,0.2 -0.2,0.49 -0.2,0.93l0 1.66 -0.49 0 0 -3.22 0.35 0 0.14 0.44 0 0c0.06,-0.15 0.2,-0.25 0.41,-0.35 0.14,-0.09 0.35,-0.14 0.55,-0.14 0.49,0 0.83,0.19 0.97,0.54l0.07 0c0.07,-0.15 0.21,-0.3 0.41,-0.4 0.14,-0.09 0.35,-0.14 0.62,-0.14 0.35,0 0.63,0.1 0.83,0.29 0.14,0.2 0.28,0.49 0.28,0.88l0 2.1 -0.48 0zm5.38 -3.03c0,0.44 -0.13,0.78 -0.48,1.03 -0.28,0.19 -0.69,0.34 -1.24,0.34l-0.56 0 0 1.66 -0.48 0 0 -4.3 1.11 0c1.1,0 1.65,0.44 1.65,1.27zm-2.28 0.93l0.49 0c0.41,0 0.76,-0.1 0.97,-0.24 0.2,-0.1 0.27,-0.35 0.27,-0.69 0,-0.24 -0.07,-0.49 -0.27,-0.63 -0.14,-0.15 -0.49,-0.2 -0.83,-0.2l-0.63 0 0 1.76zm4.36 -1.17c0.13,0 0.27,0 0.34,0.05l-0.07 0.44c-0.14,-0.05 -0.2,-0.05 -0.34,-0.05 -0.21,0 -0.49,0.1 -0.62,0.34 -0.21,0.2 -0.28,0.44 -0.28,0.78l0 1.71 -0.55 0 0 -3.22 0.41 0 0.07 0.63 0 0c0.14,-0.24 0.28,-0.39 0.48,-0.49 0.14,-0.14 0.35,-0.19 0.56,-0.19zm3.52 1.66c0,0.54 -0.14,0.93 -0.42,1.27 -0.2,0.29 -0.62,0.44 -1.1,0.44 -0.28,0 -0.48,-0.1 -0.76,-0.25 -0.21,-0.09 -0.35,-0.29 -0.48,-0.58 -0.14,-0.25 -0.21,-0.54 -0.21,-0.88 0,-0.49 0.14,-0.93 0.41,-1.22 0.28,-0.3 0.62,-0.44 1.11,-0.44 0.41,0 0.83,0.14 1.03,0.44 0.28,0.29 0.42,0.73 0.42,1.22zm-2.49 0c0,0.44 0.14,0.73 0.28,0.98 0.14,0.19 0.41,0.29 0.76,0.29 0.27,0 0.55,-0.1 0.69,-0.29 0.21,-0.25 0.28,-0.54 0.28,-0.98 0,-0.39 -0.07,-0.73 -0.28,-0.93 -0.14,-0.19 -0.42,-0.29 -0.69,-0.29 -0.35,0 -0.62,0.1 -0.76,0.29 -0.14,0.2 -0.28,0.54 -0.28,0.93zm2.76 3.08c-0.2,0 -0.34,0 -0.48,-0.05l0 -0.44c0.14,0.05 0.28,0.1 0.42,0.1 0.13,0 0.27,-0.05 0.34,-0.15 0.07,-0.1 0.07,-0.2 0.07,-0.39l0 -3.76 0.48 0 0 3.76c0,0.63 -0.27,0.93 -0.83,0.93zm0.35 -5.57c0,-0.1 0,-0.2 0.07,-0.25 0.07,-0.04 0.14,-0.04 0.21,-0.04 0.07,0 0.13,0 0.2,0.04 0.07,0.05 0.07,0.15 0.07,0.25 0,0.14 0,0.19 -0.07,0.24 -0.07,0.05 -0.13,0.1 -0.2,0.1 -0.07,0 -0.14,-0.05 -0.21,-0.1 -0.07,-0.05 -0.07,-0.1 -0.07,-0.24zm2.69 4.2c-0.48,0 -0.89,-0.15 -1.17,-0.44 -0.28,-0.29 -0.41,-0.73 -0.41,-1.22 0,-0.54 0.13,-0.93 0.41,-1.27 0.28,-0.3 0.62,-0.44 1.04,-0.44 0.41,0 0.69,0.14 0.96,0.39 0.21,0.29 0.35,0.63 0.35,1.07l0 0.3 -2.21 0c0,0.39 0.07,0.68 0.27,0.88 0.14,0.19 0.42,0.29 0.76,0.29 0.35,0 0.69,-0.1 1.04,-0.25l0 0.44c-0.21,0.1 -0.35,0.15 -0.48,0.2 -0.14,0 -0.35,0.05 -0.56,0.05zm-0.13 -2.98c-0.28,0 -0.49,0.1 -0.63,0.29 -0.13,0.15 -0.27,0.39 -0.27,0.69l1.66 0c0,-0.3 -0.07,-0.54 -0.21,-0.74 -0.14,-0.14 -0.28,-0.24 -0.55,-0.24zm2.97 2.54c0.06,0 0.13,0 0.2,0 0.14,0 0.21,-0.05 0.21,-0.05l0 0.39c-0.07,0 -0.14,0.05 -0.21,0.05 -0.14,0 -0.2,0.05 -0.27,0.05 -0.62,0 -0.97,-0.34 -0.97,-1.03l0 -1.9 -0.48 0 0 -0.25 0.48 -0.19 0.21 -0.69 0.27 0 0 0.74 0.97 0 0 0.39 -0.97 0 0 1.9c0,0.2 0.07,0.34 0.14,0.44 0.14,0.1 0.21,0.15 0.42,0.15zm3.66 -1.27c0,0.54 -0.14,0.93 -0.42,1.27 -0.27,0.29 -0.62,0.44 -1.1,0.44 -0.28,0 -0.56,-0.1 -0.76,-0.25 -0.28,-0.09 -0.42,-0.29 -0.56,-0.58 -0.13,-0.25 -0.13,-0.54 -0.13,-0.88 0,-0.49 0.07,-0.93 0.34,-1.22 0.28,-0.3 0.62,-0.44 1.11,-0.44 0.48,0 0.83,0.14 1.1,0.44 0.28,0.29 0.42,0.73 0.42,1.22zm-2.49 0c0,0.44 0.07,0.73 0.21,0.98 0.2,0.19 0.41,0.29 0.76,0.29 0.34,0 0.55,-0.1 0.76,-0.29 0.13,-0.25 0.2,-0.54 0.2,-0.98 0,-0.39 -0.07,-0.73 -0.2,-0.93 -0.21,-0.19 -0.42,-0.29 -0.76,-0.29 -0.35,0 -0.56,0.1 -0.76,0.29 -0.14,0.2 -0.21,0.54 -0.21,0.93zm5.18 0.73c0,0.34 -0.14,0.54 -0.35,0.73 -0.2,0.15 -0.55,0.25 -0.96,0.25 -0.42,0 -0.76,-0.1 -0.97,-0.25l0 -0.44c0.14,0.1 0.28,0.15 0.48,0.2 0.21,0.05 0.35,0.05 0.49,0.05 0.27,0 0.48,-0.05 0.62,-0.1 0.14,-0.1 0.21,-0.19 0.21,-0.39 0,-0.1 -0.07,-0.24 -0.14,-0.29 -0.14,-0.1 -0.35,-0.2 -0.69,-0.34 -0.28,-0.1 -0.49,-0.2 -0.62,-0.3 -0.14,-0.1 -0.21,-0.19 -0.28,-0.29 -0.07,-0.1 -0.07,-0.2 -0.07,-0.39 0,-0.25 0.07,-0.44 0.28,-0.59 0.2,-0.14 0.55,-0.24 0.9,-0.24 0.34,0 0.69,0.1 1.03,0.19l-0.21 0.44c-0.27,-0.14 -0.62,-0.24 -0.82,-0.24 -0.28,0 -0.42,0.05 -0.56,0.15 -0.14,0.04 -0.2,0.14 -0.2,0.29 0,0.1 0.06,0.15 0.06,0.19 0.07,0.1 0.14,0.15 0.21,0.2 0.14,0.05 0.35,0.15 0.62,0.24 0.35,0.15 0.62,0.3 0.76,0.39 0.14,0.15 0.21,0.35 0.21,0.54zm4.35 0.88l-2.42 0 0 -4.3 2.42 0 0 0.44 -1.86 0 0 1.42 1.79 0 0 0.44 -1.79 0 0 1.56 1.86 0 0 0.44zm2.9 -0.39l-0.07 0c-0.2,0.29 -0.55,0.49 -1.03,0.49 -0.42,0 -0.69,-0.15 -0.97,-0.44 -0.21,-0.29 -0.34,-0.73 -0.34,-1.22 0,-0.54 0.13,-0.98 0.34,-1.27 0.28,-0.3 0.55,-0.44 0.97,-0.44 0.48,0 0.83,0.14 1.03,0.49l0.07 0 -0.07 -0.25 0 -0.24 0 -1.27 0.49 0 0 4.54 -0.42 0 0 -0.39zm-1.03 0.05c0.34,0 0.62,-0.1 0.76,-0.25 0.13,-0.19 0.2,-0.48 0.2,-0.87l0 -0.1c0,-0.49 -0.07,-0.83 -0.2,-1.03 -0.14,-0.19 -0.42,-0.29 -0.76,-0.29 -0.28,0 -0.49,0.15 -0.62,0.34 -0.21,0.25 -0.28,0.54 -0.28,0.98 0,0.39 0.07,0.68 0.28,0.93 0.13,0.19 0.34,0.29 0.62,0.29zm2.76 -2.88l0 2.1c0,0.29 0,0.49 0.14,0.58 0.14,0.15 0.34,0.2 0.55,0.2 0.35,0 0.62,-0.1 0.76,-0.25 0.14,-0.19 0.28,-0.48 0.28,-0.92l0 -1.71 0.48 0 0 3.22 -0.41 0 -0.07 -0.39 -0.07 0c-0.07,0.15 -0.21,0.24 -0.42,0.34 -0.14,0.1 -0.34,0.15 -0.62,0.15 -0.34,0 -0.69,-0.1 -0.83,-0.29 -0.2,-0.2 -0.34,-0.49 -0.34,-0.88l0 -2.15 0.55 0zm4.28 3.32c-0.48,0 -0.83,-0.15 -1.1,-0.44 -0.28,-0.29 -0.35,-0.68 -0.35,-1.22 0,-0.54 0.14,-0.98 0.35,-1.27 0.27,-0.3 0.62,-0.44 1.1,-0.44 0.21,0 0.35,0 0.49,0.05 0.2,0.05 0.27,0.09 0.41,0.14l-0.21 0.39c-0.07,-0.04 -0.2,-0.09 -0.34,-0.09 -0.14,-0.05 -0.21,-0.05 -0.35,-0.05 -0.62,0 -0.97,0.44 -0.97,1.27 0,0.39 0.07,0.68 0.21,0.88 0.21,0.24 0.42,0.34 0.76,0.34 0.28,0 0.55,-0.05 0.83,-0.2l0 0.44c-0.21,0.1 -0.48,0.2 -0.83,0.2zm3.32 -0.1l-0.07 -0.44 0 0c-0.21,0.2 -0.35,0.34 -0.49,0.39 -0.2,0.1 -0.41,0.15 -0.62,0.15 -0.34,0 -0.55,-0.1 -0.76,-0.29 -0.2,-0.15 -0.27,-0.4 -0.27,-0.69 0,-0.63 0.55,-0.98 1.59,-1.02l0.55 0 0 -0.2c0,-0.29 -0.07,-0.44 -0.21,-0.59 -0.07,-0.09 -0.28,-0.19 -0.48,-0.19 -0.28,0 -0.62,0.1 -0.97,0.29l-0.14 -0.39c0.21,-0.1 0.35,-0.15 0.55,-0.19 0.21,-0.05 0.35,-0.1 0.56,-0.1 0.41,0 0.69,0.1 0.9,0.24 0.13,0.2 0.27,0.49 0.27,0.83l0 2.2 -0.41 0zm-1.11 -0.34c0.35,0 0.55,-0.05 0.76,-0.25 0.14,-0.14 0.28,-0.39 0.28,-0.68l0 -0.29 -0.55 0c-0.35,0.05 -0.63,0.1 -0.83,0.19 -0.14,0.1 -0.28,0.3 -0.28,0.49 0,0.2 0.07,0.34 0.21,0.39 0.07,0.1 0.27,0.15 0.41,0.15zm3.59 0.44c-0.48,0 -0.83,-0.15 -1.1,-0.44 -0.28,-0.29 -0.42,-0.68 -0.42,-1.22 0,-0.54 0.14,-0.98 0.42,-1.27 0.27,-0.3 0.62,-0.44 1.1,-0.44 0.14,0 0.35,0 0.49,0.05 0.14,0.05 0.27,0.09 0.34,0.14l-0.14 0.39c-0.13,-0.04 -0.2,-0.09 -0.34,-0.09 -0.14,-0.05 -0.28,-0.05 -0.35,-0.05 -0.69,0 -0.96,0.44 -0.96,1.27 0,0.39 0.07,0.68 0.2,0.88 0.14,0.24 0.42,0.34 0.69,0.34 0.28,0 0.56,-0.05 0.83,-0.2l0 0.44c-0.2,0.1 -0.48,0.2 -0.76,0.2zm1.8 -0.1l-0.48 0 0 -3.22 0.48 0 0 3.22zm-0.55 -4.1c0,-0.1 0.07,-0.2 0.14,-0.25 0,-0.04 0.06,-0.04 0.2,-0.04 0.07,0 0.14,0 0.21,0.04 0,0.05 0.07,0.15 0.07,0.25 0,0.14 -0.07,0.19 -0.07,0.24 -0.07,0.05 -0.14,0.1 -0.21,0.1 -0.14,0 -0.2,-0.05 -0.2,-0.1 -0.07,-0.05 -0.14,-0.1 -0.14,-0.24zm4.14 2.49c0,0.54 -0.14,0.93 -0.34,1.27 -0.28,0.29 -0.69,0.44 -1.11,0.44 -0.34,0 -0.55,-0.1 -0.83,-0.25 -0.21,-0.09 -0.34,-0.29 -0.48,-0.58 -0.14,-0.25 -0.21,-0.54 -0.21,-0.88 0,-0.49 0.14,-0.93 0.42,-1.22 0.27,-0.3 0.62,-0.44 1.1,-0.44 0.42,0 0.83,0.14 1.11,0.44 0.2,0.29 0.34,0.73 0.34,1.22zm-2.42 0c0,0.44 0.07,0.73 0.21,0.98 0.21,0.19 0.42,0.29 0.76,0.29 0.28,0 0.55,-0.1 0.69,-0.29 0.21,-0.25 0.28,-0.54 0.28,-0.98 0,-0.39 -0.07,-0.73 -0.28,-0.93 -0.14,-0.19 -0.41,-0.29 -0.69,-0.29 -0.34,0 -0.62,0.1 -0.76,0.29 -0.14,0.2 -0.21,0.54 -0.21,0.93zm5.25 1.61l0 -2.05c0,-0.29 0,-0.49 -0.14,-0.59 -0.13,-0.14 -0.34,-0.19 -0.55,-0.19 -0.34,0 -0.62,0.05 -0.76,0.24 -0.14,0.2 -0.27,0.49 -0.27,0.93l0 1.66 -0.49 0 0 -3.22 0.42 0 0.07 0.44 0.07 0c0.06,-0.15 0.2,-0.25 0.41,-0.35 0.14,-0.09 0.35,-0.14 0.55,-0.14 0.42,0 0.69,0.1 0.9,0.29 0.21,0.2 0.35,0.49 0.35,0.88l0 2.1 -0.56 0zm3.32 0l-0.14 -0.44 0 0c-0.21,0.2 -0.35,0.34 -0.48,0.39 -0.21,0.1 -0.35,0.15 -0.62,0.15 -0.35,0 -0.56,-0.1 -0.76,-0.29 -0.21,-0.15 -0.28,-0.4 -0.28,-0.69 0,-0.63 0.55,-0.98 1.59,-1.02l0.55 0 0 -0.2c0,-0.29 -0.07,-0.44 -0.21,-0.59 -0.07,-0.09 -0.27,-0.19 -0.48,-0.19 -0.28,0 -0.55,0.1 -0.9,0.29l-0.21 -0.39c0.21,-0.1 0.35,-0.15 0.56,-0.19 0.2,-0.05 0.41,-0.1 0.55,-0.1 0.41,0 0.69,0.1 0.9,0.24 0.14,0.2 0.27,0.49 0.27,0.83l0 2.2 -0.34 0zm-1.18 -0.34c0.35,0 0.56,-0.05 0.76,-0.25 0.14,-0.14 0.28,-0.39 0.28,-0.68l0 -0.29 -0.48 0c-0.42,0.05 -0.69,0.1 -0.9,0.19 -0.14,0.1 -0.21,0.3 -0.21,0.49 0,0.2 0,0.34 0.14,0.39 0.07,0.1 0.28,0.15 0.41,0.15zm2.77 0.34l-0.49 0 0 -3.22 0.49 0 0 3.22zm-0.56 -4.1c0,-0.1 0.07,-0.2 0.14,-0.25 0,-0.04 0.07,-0.04 0.21,-0.04 0.07,0 0.14,0 0.21,0.04 0,0.05 0.07,0.15 0.07,0.25 0,0.14 -0.07,0.19 -0.07,0.24 -0.07,0.05 -0.14,0.1 -0.21,0.1 -0.14,0 -0.21,-0.05 -0.21,-0.1 -0.07,-0.05 -0.14,-0.1 -0.14,-0.24zm3.46 3.22c0,0.34 -0.14,0.54 -0.35,0.73 -0.2,0.15 -0.55,0.25 -0.96,0.25 -0.42,0 -0.76,-0.1 -0.97,-0.25l0 -0.44c0.14,0.1 0.28,0.15 0.48,0.2 0.21,0.05 0.35,0.05 0.55,0.05 0.21,0 0.42,-0.05 0.56,-0.1 0.14,-0.1 0.2,-0.19 0.2,-0.39 0,-0.1 -0.06,-0.24 -0.13,-0.29 -0.14,-0.1 -0.35,-0.2 -0.69,-0.34 -0.28,-0.1 -0.49,-0.2 -0.63,-0.3 -0.13,-0.1 -0.2,-0.19 -0.27,-0.29 -0.07,-0.1 -0.07,-0.2 -0.07,-0.39 0,-0.25 0.07,-0.44 0.28,-0.59 0.2,-0.14 0.55,-0.24 0.89,-0.24 0.35,0 0.69,0.1 1.04,0.19l-0.21 0.44c-0.27,-0.14 -0.62,-0.24 -0.83,-0.24 -0.27,0 -0.41,0.05 -0.55,0.15 -0.14,0.04 -0.21,0.14 -0.21,0.29 0,0.1 0.07,0.15 0.07,0.19 0.07,0.1 0.14,0.15 0.28,0.2 0.07,0.05 0.27,0.15 0.55,0.24 0.35,0.15 0.62,0.3 0.76,0.39 0.14,0.15 0.21,0.35 0.21,0.54z"/>
    </clipPath>
    <clipPath id="id1">
     <path d="M74.2 31.47l-4.63 0 0 -23.85 -2.07 0 0 23.85 -4.63 0 0 -23.85 -2.08 0 0 23.85 -4.62 0 0 -23.85 -3.13 0c-0.75,0 -1.37,-0.62 -1.37,-1.38l0 -0.28c0,-0.76 0.62,-1.38 1.37,-1.38l24.28 0c0.76,0 1.38,0.62 1.38,1.38l0 0.28c0,0.76 -0.62,1.38 -1.38,1.38l-3.12 0 0 23.85z"/>
    </clipPath>
 </defs>
 <g id="Camada_x0020_1">
  <metadata id="CorelCorpID_0Corel-Layer"/>
  <g id="_7178128240">
   <path class="fil0" d="M58.09 35.74c0.76,-0.39 1.38,0.15 1.52,0.74 0.27,0.73 0.13,10.5 0.13,12.01 0,1.17 0.28,3.67 -0.69,4.15 -0.76,0.39 -1.45,-0.14 -1.65,-0.73 -0.21,-0.73 -0.07,-10.6 -0.07,-12.06 0,-1.37 -0.42,-3.52 0.76,-4.11zm4.35 0.84c0.76,-0.2 2.42,-0.15 3.24,-0.1 1.11,0.05 1.66,0.49 1.66,1.56l0 12.26c0,1.17 -0.48,1.61 -1.66,1.61 -0.89,0 -2.41,0.05 -3.24,-0.05l0 -15.28zm-17.2 1.02c0.28,0.44 2.14,6.98 2.28,7.91l-4.42 0 2.14 -7.91zm-1.52 -1.9c0.14,1.27 -1.73,7.62 -2.21,9.23l-1.8 6.69c-0.62,2 -1.03,0.49 -1.38,1.56 0.35,0.44 0.49,0.25 1.87,0.25 0.76,0 1.52,0 2.28,0 0.13,-0.98 -0.28,-0.59 -1.25,-0.84 -0.07,-1.07 1.11,-4.49 1.52,-5.71l5.18 0 1.52 5.13c0.07,1.12 -0.62,0.58 -1.31,0.88l0 0.44c1.52,0.29 15.96,0.1 18.72,0.1 2.07,0 3.18,-1.08 3.18,-3.13l0 -12.26c0,-2 -1.11,-3.08 -3.18,-3.08l-12.85 0c-0.76,0 -0.41,0.05 -0.55,0.2 0.07,0.83 0.14,0.15 0.76,0.83 0.34,0.34 0.41,0.88 0.41,1.42l0 13.48c0,1.27 -0.27,2 -1.52,1.8 -0.76,-1.02 -2.28,-7.03 -2.83,-8.94l-1.93 -6.98c-0.07,-0.49 0.07,-0.73 0.41,-0.93 0.83,-0.53 0.69,0.2 0.76,-0.88l-6.77 0c0,1.03 -0.07,0.44 0.97,0.74z"/>
   <path class="fil0" d="M94.28 37.5l2.35 8.01 -4.42 0 2.07 -8.01zm-22.59 -0.09l0 13.48c0,2.49 -1.38,1.22 -1.17,2.54l21.13 0 0 -0.54 -1.31 -0.3c0,-0.83 1.25,-4.93 1.52,-5.76l5.18 0c0.35,1.03 0.69,2.25 0.97,3.37 0.14,0.44 0.48,1.42 0.55,1.81 0.07,1.22 -0.55,0.54 -1.31,0.88l0 0.49c0.9,0.09 5.11,0.19 5.66,-0.05 0,-1.13 -0.62,0.05 -1.17,-1.52 -0.28,-0.73 -0.48,-1.46 -0.69,-2.19 -0.42,-1.47 -0.83,-2.89 -1.24,-4.4 -0.42,-1.51 -2.49,-7.86 -2.35,-9.04 0.27,-0.24 0.34,-0.24 0.62,-0.44 0.83,-0.48 0.41,0.25 0.55,-0.58l-6.15 -0.2c-1.03,0.1 -0.41,-0.19 -0.62,0.35 0.21,0.39 -0.07,0.09 0.35,0.24 0.27,0.15 0.96,-0.15 0.55,1.42 -0.76,3.07 -3.66,14.35 -4.35,15.72 -1.45,0.25 -1.8,-0.49 -1.8,-1.8l0 -13.48c0,-2.5 1.18,-0.93 1.25,-2.45l-5.18 0c0.06,1.62 1.24,-0.39 1.24,2.79l0 13.14c0,2.39 -1.87,2.29 -2.28,1.02 -0.21,-0.73 -0.07,-4.1 -0.07,-5.08 -0.69,-0.05 -0.55,0 -0.83,0.64 -0.21,0.39 -0.27,0.63 -0.48,1.02 -1.45,2.98 -1.11,3.42 -2.76,3.42 -0.9,0 -2.21,0.05 -3.11,-0.05l0 -7.42c2.21,-0.49 1.65,2.1 2.97,2.44 0,0 0,-0.15 0.07,-0.1l0.13 -6.49c-0.89,0.09 -0.55,0.09 -1.38,1.56 -0.48,0.78 -0.55,1.12 -1.79,0.93l0 -6.2c0.96,-0.2 1.93,-0.1 2.97,-0.1 2.21,0 2.21,4.44 3.8,4.64 0,-1.22 -0.07,-2.49 0,-3.71 0,-2.54 1.17,-0.88 1.24,-2.45l-11.95 0c0.07,1.52 1.24,-0.05 1.24,2.45z"/>
   <path class="fil0" d="M109.61 62.41c0.28,0.49 2.28,7.33 2.21,7.96l-4.35 -0.05 2.14 -7.91zm3.18 -1.41c1.45,-1.08 1.11,-0.1 1.11,-1.18l-6.77 0 0 0.59 0.96 0.15c0.14,1.27 -1.59,6.98 -2,8.64 -0.34,1.27 -1.86,7.91 -2.49,8.25 -0.07,0 -0.13,0 -0.13,0.05 -0.9,0.39 -0.69,0.1 -0.69,0.78l4.14 0c0,-1.02 -0.35,-0.53 -1.24,-0.83 -0.07,-0.92 0.96,-3.95 1.24,-5.03 0.14,-0.73 0.07,-0.73 0.83,-0.73l4.49 0c0.41,0.88 1.72,5.03 1.52,5.72 -0.35,0.48 -1.32,-0.1 -1.25,0.58 0.21,0.44 0.14,0.29 0.83,0.29 0.35,0 0.76,0 1.11,0l15.88 0c0.07,-1.41 -1.17,0 -1.17,-2.83l-0.07 -3.47c-0.07,-0.34 0,-0.14 -0.14,-0.34 -0.69,0.15 -0.41,0.3 -1.17,1.86 -1.94,3.95 -0.35,3.27 -5.8,3.27 -0.14,-2.49 0,-11.33 0,-14.36 0,-0.54 0,-1.12 0.34,-1.51 0.62,-0.73 0.76,0 0.9,-0.93 -0.21,-0.15 0.07,-0.15 -0.62,-0.15l-4.56 0c0.07,1.22 0.21,0.3 0.9,0.98 0.27,0.29 0.34,0.93 0.34,1.47l0 13.48c0,1.36 -0.34,2.1 -1.79,1.8 -0.83,-1.37 -2.01,-6.01 -2.56,-8.06 -0.48,-1.56 -2.35,-7.27 -2.14,-8.49z"/>
   <path class="fil0" d="M96.08 59.82c-1.39,-0.05 -5.25,-0.09 -6.43,0.1 0.07,1.17 1.25,0.05 1.25,2.35l0 13.48c0,2.39 -1.25,1.27 -1.18,2.53l4.01 0c0.07,-1.31 -1.18,-0.04 -1.18,-2.53 0,-3.86 -0.07,-9.28 0,-12.95 0.14,0.1 0.14,0.15 0.28,0.34l0.07 0.2c0.07,0.15 0.14,0.34 0.14,0.49l2.34 6.88c0.42,1.32 0.9,2.69 1.32,4.01 0.34,1.03 0.96,3.56 1.52,3.56l3.45 -0.04c0.21,-3.67 0,-10.55 0,-14.75 0,-4.79 1.17,-1.81 1.17,-3.62l-4 -0.05c0,1.22 0.14,0.25 0.83,0.98 0.34,0.34 0.34,0.83 0.34,1.32 0,3.71 0.14,9.86 0,13.28 -0.9,-2.15 -1.72,-4.78 -2.48,-7.13 -0.49,-1.36 -2.35,-6.2 -2.15,-7.37 0.63,-0.83 0.7,0.05 0.7,-1.08z"/>
   <path class="fil0" d="M16.92 61.34c3.11,-0.15 4.9,-0.44 4.9,1.66l0 12.11c0,2.1 -1.86,1.71 -4.9,1.61l0 -15.38zm7.6 1.51c0,-1.95 -1.11,-3.03 -3.04,-3.03l-8.43 0.05c0,1.32 1.18,0.05 1.18,2.4l0 13.48c0,0.58 0,1.17 -0.35,1.51 -0.62,0.63 -0.69,0.05 -0.9,0.73 0.14,0.34 -0.13,0.29 0.63,0.29l7.87 0c1.86,0 3.04,-1.07 3.04,-2.97l0 -12.46z"/>
   <path class="fil0" d="M82.47 61.48c0.14,-0.09 3.66,-0.78 4.07,0.83 0.14,0.59 0,8.89 0,10.26 0,1.42 0.42,3.66 -0.83,4.1 -0.13,0.05 -3.59,0.69 -4,-0.88l-0.07 -10.2c0,-1.57 -0.35,-3.62 0.83,-4.11zm6.7 14.56c0.14,-0.73 0.14,-13.38 0,-14.12 -0.49,-2.29 -2.83,-2.1 -5.18,-2.1 -2.35,0 -4.49,-0.14 -4.98,2.15 -0.13,0.88 -0.13,13.58 0.07,14.31 0.56,2.2 2.9,2 5.25,2 2.49,0 4.35,0.15 4.84,-2.24z"/>
   <path class="fil0" d="M11.26 62.27c0.07,-2.35 1.17,-1.03 1.24,-2.4l-11.95 -0.05c0.07,1.08 0.14,0.35 0.83,0.98 0.41,0.34 0.41,0.88 0.41,1.47l0 13.48c0,2.63 -1.24,1.07 -1.17,2.53l12.23 0c0.06,-1.36 -1.25,0 -1.18,-2.83 0,-0.68 0,-1.32 0,-2 0,-0.54 0.14,-1.37 -0.21,-1.81 -0.55,0.15 -0.34,0.15 -0.96,1.32l-1.38 3.18c-0.35,0.68 -0.49,0.63 -1.45,0.63l-3.18 0 0 -7.57c1.31,0 1.31,0.15 1.86,1.08 0.28,0.48 0.49,1.46 1.25,1.46l0 -6.54c-1.59,0 -0.42,2.54 -3.11,2.49l0 -6.35 0.62 0c2.62,0 3.11,-0.3 3.73,0.83 0.28,0.49 0.48,0.93 0.69,1.41 0.69,1.27 0.97,2.4 1.66,2.35 0.14,-0.98 0,-2.59 0.07,-3.66z"/>
   <path class="fil0" d="M54.36 62.36c0.34,0.59 2.14,6.99 2.28,8.01l-4.42 -0.05 2.14 -7.96zm3.86 -1.8c0.49,-0.3 0.42,0.04 0.42,-0.69l-6.77 -0.05 0 0.64 0.97 0.1c0.14,0.97 -3.18,13.28 -4.01,16.06 -0.62,1.96 -1.24,0.2 -1.31,1.52 0.55,0.34 3.31,0.24 4.14,0.1 0,-1.27 -1.59,0 -1.17,-1.66 0,-0.15 0.14,-0.54 0.21,-0.69 0.34,-1.17 0.89,-4.2 1.52,-4.2 5.87,0 4.69,-0.63 5.66,2.74 0.28,0.88 0.83,2.19 0.62,3.02 -0.83,0.54 -1.03,-0.29 -1.24,0.54 0.14,0.34 -0.14,0.29 0.55,0.29l4.56 0c0.69,0 0.41,0.05 0.55,-0.29 -0.27,-0.78 -0.21,0 -0.83,-0.63 -0.55,-0.59 -4.83,-15.88 -4.56,-16.36 0.42,-0.35 0.21,-0.2 0.69,-0.44z"/>
   <path class="fil0" d="M28.73 62.27c0,-2.54 1.18,-0.93 1.25,-2.45l-5.19 0.05c0.07,0.93 -0.06,0.34 0.63,0.83 0.27,0.2 0.48,0.39 0.55,0.83l0.07 8.6c0,4.2 -0.97,8.15 3.11,8.15 2.69,0 5.94,0.54 6.21,-2.58 0.21,-2.3 -0.2,-13.29 0.07,-14.31 0.28,-1.32 1.11,-0.3 1.11,-1.52l-4.01 -0.05c0,1.52 1.17,-0.05 1.17,2.3l0 12.99c0,1.27 -0.55,1.66 -1.79,1.66 -1.93,0 -3.18,0.25 -3.18,-1.66l0 -12.84z"/>
   <path class="fil0" d="M31.63 36.58c0.69,-0.15 2.42,-0.15 3.18,-0.1 1.17,0.1 1.38,0.49 1.38,1.71 0,3.9 0.48,4.83 -1.86,4.83l-2.7 -0.05 0 -6.39zm-2.62 0.83l0 13.48c0,2.44 -1.38,1.22 -1.18,2.54l5.05 0c0.13,-1.86 -1.25,1.12 -1.25,-3.72 0,-1.71 0,-3.42 0,-5.13 2.77,-0.48 7.26,1.52 7.26,-3.95 0,-6.69 -0.9,-5.67 -11.13,-5.67 0.07,1.52 1.25,0 1.25,2.45z"/>
   <path class="fil0" d="M47.45 72.91c-0.83,-0.1 -1.45,1.17 -2.35,2.4 -1.24,1.71 -0.97,1.46 -3.52,1.46 -2.21,0 -2.07,-0.78 -2.07,-2.83l0 -9.87c0,-2.2 -0.14,-2.73 2.21,-2.73 3.11,0 2.55,-0.64 4.35,3.07 0.27,0.54 0.48,1.37 1.1,1.47 0.35,-0.59 0.14,-4.98 0.14,-6.01 -1.03,-0.1 -0.14,0 -0.9,0.73 -0.69,-0.34 -0.69,-0.73 -1.93,-0.78 -0.9,-0.05 -1.93,0 -2.9,0 -5.8,0 -4.77,0.98 -4.77,12.12 0,5.37 -0.41,6.34 4.91,6.34 4.83,0 5.8,-0.24 5.73,-5.37z"/>
   <path class="fil0" d="M73.56 72.86c-0.83,0.05 -0.97,0.59 -1.38,1.22 -2.28,3.03 -1.66,2.69 -4.7,2.69 -2.21,0 -1.86,-1.07 -1.86,-3.17 0,-1.62 0,-3.23 0,-4.84 0,-6.74 -0.63,-7.42 2.48,-7.42 2.56,0 2.42,-0.39 3.39,1.61 0.27,0.59 0.55,1.02 0.83,1.61 0.62,1.27 0.41,1.22 1.1,1.32l0 -6.06c-0.76,0.05 -0.41,0 -0.76,0.78 -0.83,-0.43 -0.76,-0.73 -2.14,-0.78 -0.9,-0.05 -1.93,0 -2.9,0 -2,0 -3.39,-0.09 -4.28,1.32 -0.69,1.17 -0.35,8.84 -0.35,10.8 0,5.27 -0.48,6.34 4.84,6.34 4.76,0 5.94,-0.19 5.73,-5.42z"/>
   <path class="fil1" d="M16.92 76.72c3.04,0.1 4.9,0.49 4.9,-1.61l0 -12.11c0,-2.1 -1.79,-1.81 -4.9,-1.66l0 15.38z"/>
   <path class="fil1" d="M62.44 51.86c0.83,0.1 2.35,0.05 3.24,0.05 1.18,0 1.66,-0.44 1.66,-1.61l0 -12.26c0,-1.07 -0.55,-1.51 -1.66,-1.56 -0.82,-0.05 -2.48,-0.1 -3.24,0.1l0 15.28z"/>
   <path class="fil1" d="M82.47 61.48c-1.18,0.49 -0.83,2.54 -0.83,4.11l0.07 10.2c0.41,1.57 3.87,0.93 4,0.88 1.25,-0.44 0.83,-2.68 0.83,-4.1 0,-1.37 0.14,-9.67 0,-10.26 -0.41,-1.61 -3.93,-0.92 -4.07,-0.83z"/>
   <path class="fil0" d="M74.32 59.82c-0.69,0 -0.42,0 -0.62,0.15 0.2,1.22 1.24,-0.1 1.24,2.44l0 13.34c0,2.49 -1.17,1.17 -1.24,2.49 1.24,0.09 4,0.19 5.11,-0.1 0,-1.17 -1.18,0 -1.18,-2.25l0 -13.62c0,-0.59 0,-1.08 0.42,-1.42 0.62,-0.64 0.69,0 0.83,-0.88 -0.49,-0.34 -3.53,-0.15 -4.56,-0.15z"/>
   <path class="fil2" d="M56.22 25.88l0 -2.64c-4.35,0.15 -10.15,1.71 -14.23,2.93 -2.76,0.88 -10.22,4.06 -11.67,5.52 1.66,-0.44 4.14,-1.46 5.87,-2.1 5.39,-1.81 14.44,-3.47 20.03,-3.71z"/>
   <path class="fil1" d="M58.09 35.74c-1.18,0.59 -0.76,2.74 -0.76,4.11 0,1.46 -0.14,11.33 0.07,12.06 0.2,0.59 0.89,1.12 1.65,0.73 0.97,-0.48 0.69,-2.98 0.69,-4.15 0,-1.51 0.14,-11.28 -0.13,-12.01 -0.14,-0.59 -0.76,-1.13 -1.52,-0.74z"/>
   <path class="fil2" d="M74.32 26.12c3.66,0.15 8.77,1.22 12.22,2.1 2.63,0.64 5.74,1.52 8.29,2.49 0.83,0.3 1.8,0.79 2.63,0.98 -1.18,-1.32 -8.43,-4.35 -10.5,-5.08 -5.87,-2.05 -7.05,-1.95 -12.71,-3.08l0.07 2.59z"/>
   <path class="fil3" d="M65.48 3.07l0 -3.03c-2.21,0 -4.49,0 -6.77,0 -1.66,0 -5.25,-0.44 -5.32,1.52 0,1.9 3.52,1.51 5.18,1.51 2.28,0 4.63,0.05 6.91,0z"/>
   <path class="fil4" d="M65.48 3.07c2.14,0 4.35,0 6.56,0 1.66,0 5.11,0.44 5.11,-1.51 0,-1.96 -3.52,-1.52 -5.11,-1.52 -2.21,0 -4.35,0 -6.56,0l0 3.03z"/>
   <polygon class="fil1" points="60.92,22.9 62.85,22.9 62.85,7.56 60.92,7.56 "/>
   <path class="fil1" d="M31.63 42.97l2.7 0.05c2.34,0 1.86,-0.93 1.86,-4.83 0,-1.22 -0.21,-1.61 -1.38,-1.71 -0.76,-0.05 -2.49,-0.05 -3.18,0.1l0 6.39z"/>
   <polygon class="fil1" points="67.62,22.95 69.41,23.05 69.48,7.56 67.62,7.61 "/>
   <path class="fil1" d="M52.22 70.32l4.42 0.05c-0.14,-1.02 -1.94,-7.42 -2.28,-8.01l-2.14 7.96z"/>
   <path class="fil1" d="M107.47 70.32l4.35 0.05c0.07,-0.63 -1.93,-7.47 -2.21,-7.96l-2.14 7.91z"/>
   <path class="fil1" d="M43.1 45.51l4.42 0c-0.14,-0.93 -2,-7.47 -2.28,-7.91l-2.14 7.91z"/>
   <polygon class="fil1" points="92.21,45.51 96.63,45.51 94.28,37.5 "/>
   <path class="fil2" d="M14.3 52.64c0.13,2.1 3.66,3.86 6.07,2.79 0,-1.08 -1.31,-2 -2.21,-2.44 -0.89,-0.4 -2.97,-0.93 -3.86,-0.35z"/>
   <path class="fil2" d="M108.09 54.26c1.59,-0.88 1.25,-5.77 -0.48,-6.55 -1.93,1.08 -1.31,5.96 0.48,6.55z"/>
   <path class="fil2" d="M22.03 54.26c2.28,-1.23 1.8,-6.4 0.49,-6.5 -1.39,-0.15 -2.42,5.32 -0.49,6.5z"/>
   <path class="fil2" d="M109.75 55.28c1.52,1.42 6.29,-0.68 6.01,-2.69 -2.21,-0.92 -5.87,1.03 -6.01,2.69z"/>
   <path class="fil2" d="M60.92 22.9l0 2.69 1.93 0c0,1.02 -0.2,5.37 0.14,5.91 0,-2.25 0.21,-22.72 -0.07,-24.03 -0.34,-0.05 -0.69,-0.05 -1.03,-0.05l-0.97 0.14 1.93 0 0 15.34 -1.93 0z"/>
   <path class="fil2" d="M111.69 49.22c0.75,-0.73 0.62,-2.29 0.27,-3.27 -0.27,-0.93 -0.76,-2.15 -1.73,-2.2 -1.45,1.62 -0.06,5.28 1.46,5.47z"/>
   <path class="fil2" d="M12.09 47.32c-0.21,0.2 -0.28,-0.05 -0.07,0.59 0.48,1.41 3.86,3.07 4.83,2.19 1.04,-0.92 -3.59,-3.95 -4.76,-2.78z"/>
   <path class="fil2" d="M18.3 49.22c0.9,-0.04 1.52,-1.17 1.87,-2.05 0.48,-1.36 0.27,-2.29 -0.21,-3.42 -1.8,0.15 -2.56,3.72 -1.66,5.47z"/>
   <path class="fil2" d="M113.14 50.1c2.07,0.79 4.97,-1.07 4.97,-2.88 -1.18,-0.24 -2.28,0.05 -3.25,0.64 -0.62,0.34 -1.86,1.27 -1.72,2.24z"/>
   <path class="fil2" d="M111.69 39.16c-1.18,1.91 1.65,5.28 2.55,4.84 1.17,-0.59 -0.9,-4.93 -2.55,-4.84z"/>
   <path class="fil2" d="M13.81 44.34c0.56,-1.66 -2.07,-4.15 -3.87,-4 -0.34,1.9 2.08,4.29 3.87,4z"/>
   <path class="fil2" d="M15.68 44c2.21,0.05 3.73,-4.05 2.76,-4.74 -0.69,-0.49 -1.8,1.08 -2.07,1.52 -0.55,0.92 -0.9,2.05 -0.69,3.22z"/>
   <path class="fil2" d="M119.49 40.29c-2.42,0.58 -4.63,4.39 -2.56,4 2.42,-0.44 4.29,-4.44 2.56,-4z"/>
   <path class="fil2" d="M67.62 22.95l0 2.68 1.73 0.05c0.55,1.22 -0.28,4.99 0.27,5.82l0 -23.99 -1.79 0c0,0 -0.07,0.05 -0.07,0.05 -0.07,0 -0.07,0 -0.14,0.05l1.86 -0.05 -0.07 15.49 -1.79 -0.1z"/>
   <path class="fil2" d="M14.85 32.33c0.14,0.04 0.14,0.09 0.41,0.09 0.76,0.1 1.8,-0.58 2.28,-1.02 0.42,-0.49 1.31,-1.66 1.11,-2.64 -0.21,-0.1 -0.07,-0.1 -0.42,-0.1 -0.2,-0.05 -0.07,-0.05 -0.34,0 -0.69,0.1 -1.38,0.74 -1.8,1.13 -0.55,0.53 -1.38,1.46 -1.24,2.54z"/>
   <path class="fil2" d="M115.83 38.33c0.14,-1.75 -2.07,-4.05 -3.8,-3.81 -0.21,1.91 1.87,4.06 3.8,3.81z"/>
   <path class="fil2" d="M13.33 37.94c0.62,-1.85 -2.42,-4.78 -3.11,-4.15 -0.9,0.88 1.45,4.74 3.11,4.15z"/>
   <path class="fil2" d="M115.21 32.47c0.14,-1.8 -2.07,-4.15 -3.73,-3.81 -0.28,1.86 1.86,3.96 3.73,3.81z"/>
   <path class="fil2" d="M116.73 37.99c1.65,0.15 3.87,-2.64 3.17,-4.2 -1.24,-0.44 -3.59,2.35 -3.17,4.2z"/>
   <path class="fil2" d="M13.95 32.52c0.69,-1.95 -1.52,-5.03 -2.42,-4.54 -1.1,0.59 0.63,4.79 2.42,4.54z"/>
   <path class="fil2" d="M14.37 38.33c1.86,0.2 3.93,-1.9 3.73,-3.76 -1.73,-0.29 -3.94,2.01 -3.73,3.76z"/>
   <path class="fil2" d="M116.17 32.52c1.73,0.25 3.53,-3.91 2.42,-4.54 -0.9,-0.49 -3.11,2.59 -2.42,4.54z"/>
   <path class="fil2" d="M114.72 22.66c1.39,-0.79 1.11,-4.6 -0.69,-4.79 -0.55,1.32 -0.89,4.15 0.69,4.79z"/>
   <path class="fil2" d="M15.47 26.32c1.87,0.58 4.21,-2.69 3.38,-3.42 -0.48,-0.54 -2.07,0.78 -2.27,1.03 -0.56,0.53 -1.18,1.27 -1.11,2.39z"/>
   <path class="fil2" d="M14.57 26.32c0.42,-1.81 -0.9,-4.06 -2.28,-4.25 -1.03,1.42 0.83,4.74 2.28,4.25z"/>
   <path class="fil2" d="M114.66 26.42c0.06,-1.71 -1.87,-3.76 -3.46,-3.57 -0.62,1.56 1.66,3.66 3.46,3.57z"/>
   <path class="fil2" d="M15.4 22.66c1.59,-0.69 1.24,-3.47 0.69,-4.79 -0.69,0.05 -0.76,0.24 -1.03,0.73 -0.63,1.27 -0.76,3.27 0.34,4.06z"/>
   <path class="fil2" d="M117.97 22.02c-1.8,0.24 -3.25,4.05 -2.14,4.35 0.69,0.14 3.04,-2.35 2.14,-4.35z"/>
   <g style="clip-path:url(#id0)">
    <image x="-56.02" y="-41.5" width="243.68" height="172.31" xlink:href="logo_paideia_Images\logo_paideia_ImgID1.png"/>
   </g>
   <path class="fil5" d="M74.2 31.47l-4.63 0 0 -23.85 -2.07 0 0 23.85 -4.63 0 0 -23.85 -2.08 0 0 23.85 -4.62 0 0 -23.85 -3.13 0c-0.75,0 -1.37,-0.62 -1.37,-1.38l0 -0.28c0,-0.76 0.62,-1.38 1.37,-1.38l24.28 0c0.76,0 1.38,0.62 1.38,1.38l0 0.28c0,0.76 -0.62,1.38 -1.38,1.38l-3.12 0 0 23.85z"/>
   <g style="clip-path:url(#id1)">
    <g>
     <rect class="fil6" x="65.85" y="4.34" width="13.56" height="27.44"/>
    </g>
   </g>
   <path class="fil7" d="M74.2 31.47l-4.63 0 0 -23.85 -2.07 0 0 23.85 -4.63 0 0 -23.85 -2.08 0 0 23.85 -4.62 0 0 -23.85 -3.13 0c-0.75,0 -1.37,-0.62 -1.37,-1.38l0 -0.28c0,-0.76 0.62,-1.38 1.37,-1.38l24.28 0c0.76,0 1.38,0.62 1.38,1.38l0 0.28c0,0.76 -0.62,1.38 -1.38,1.38l-3.12 0 0 23.85z"/>
  </g>
 </g>
</svg>
