<?xml version="1.0" encoding="utf-8"?>
<!DOCTYPE svg PUBLIC "-//W3C//DTD SVG 1.1//EN" "http://www.w3.org/Graphics/SVG/1.1/DTD/svg11.dtd">
<svg version="1.1" id="Layer_1" xmlns="http://www.w3.org/2000/svg" xmlns:xlink="http://www.w3.org/1999/xlink" x="0px" y="0px"
	 viewBox="0 0 2560 1600" enable-background="new 0 0 2560 1600" xml:space="preserve">
<g>
	<path id="path6" fill="#127CC1" d="M2478.72,454.4026c-113.886-555.1465-1188.0887-590.3034-1880.5265-167.355v46.7128
		c691.5284-356.951,1672.7731-354.6746,1762.0648,156.703c30.0876,169.4074-64.6768,345.5982-234.592,446.9766v132.6707
		C2330.2078,995.0618,2539.2881,752.1603,2478.72,454.4026 M1219.5684,1426.3777
		c-477.8685,44.229-975.7843-25.3882-1045.4915-400.2681c-34.618-184.5955,49.6556-380.5188,160.8175-502.0773V458.947
		C134.4491,635.3784,25.5689,858.5391,88.4351,1122.0355c80.1731,338.1348,507.4808,529.5344,1159.8361,465.8051
		c258.2935-24.9362,596.3219-108.3938,830.9142-237.8636v-183.9403C1865.9923,1293.7068,1513.3892,1399.1858,1219.5684,1426.3777z"
		/>
	<g enable-background="new    ">
		<path fill="#127CC1" d="M2147.9792,376.104c7.1904,0,14.2119,1.8062,21.0625,5.418c6.8496,3.6113,12.1865,8.7788,16.0098,15.5024
			c3.8223,6.7231,5.7334,13.7339,5.7334,21.0313c0,7.2236-1.8828,14.1694-5.6484,20.8369
			c-3.7666,6.668-9.0459,11.8452-15.8389,15.5308c-6.7939,3.686-13.9004,5.5283-21.3184,5.5283s-14.5244-1.8423-21.3174-5.5283
			c-6.7939-3.6855-12.083-8.8628-15.8672-15.5308c-3.7852-6.6675-5.6777-13.6133-5.6777-20.8369
			c0-7.2974,1.9209-14.3081,5.7627-21.0313c3.8408-6.7236,9.1875-11.8911,16.0381-15.5024
			C2133.7673,377.9102,2140.7878,376.104,2147.9792,376.104z M2147.9792,383.0498c-6.0176,0-11.875,1.5098-17.5703,4.5283
			c-5.6963,3.02-10.1533,7.335-13.3701,12.9468c-3.2168,5.6123-4.8252,11.4561-4.8252,17.5308
			c0,6.0386,1.5801,11.8267,4.7402,17.3643c3.1602,5.5381,7.5791,9.854,13.2568,12.9468
			c5.6768,3.0933,11.5996,4.6396,17.7686,4.6396s12.0928-1.5464,17.7695-4.6396c5.6777-3.0928,10.0859-7.4087,13.2275-12.9468
			c3.1416-5.5376,4.7119-11.3257,4.7119-17.3643c0-6.0747-1.5986-11.9185-4.7969-17.5308
			c-3.1982-5.6118-7.6553-9.9268-13.3691-12.9468C2159.8064,384.5596,2153.9587,383.0498,2147.9792,383.0498z M2129.1882,441.2266
			v-45.1191h15.8389c5.4121,0,9.3291,0.417,11.752,1.2505c2.4219,0.8335,4.3516,2.2876,5.791,4.3618
			c1.4375,2.0747,2.1572,4.2783,2.1572,6.6123c0,3.2974-1.2021,6.1675-3.6055,8.6123s-5.5918,3.8159-9.5654,4.1118
			c1.627,0.667,2.9326,1.4639,3.917,2.3896c1.8535,1.7778,4.125,4.7603,6.8125,8.9458l5.6201,8.835h-9.083l-4.0879-7.1123
			c-3.2168-5.5933-5.8096-9.0938-7.7773-10.502c-1.3623-1.0366-3.3496-1.5557-5.9609-1.5557h-4.3711v19.1699h-7.4375V441.2266z
			 M2136.6257,415.833h9.0264c4.3145,0,7.2568-0.6294,8.8281-1.8892c1.5693-1.2588,2.3555-2.9258,2.3555-5.001
			c0-1.3335-0.3789-2.5278-1.1348-3.5835c-0.7578-1.0562-1.8086-1.8428-3.1514-2.3618c-1.3438-0.5181-3.832-0.7778-7.4648-0.7778
			h-8.459V415.833z"/>
	</g>
	<g>
		<path fill="#127CC1" d="M462.4473,604.5249l-0.2734-0.0781c-8.9443-2.3853-40.1494-7.6133-74.6133-7.6133
			c-25.0845,0-61.1499,4.9883-90.5103,28.7534c-31.3008,25.3354-47.1719,65.5439-47.1719,119.5083v67.6216
			c0,53.2256,15.8604,93.1934,47.1406,118.793c23.2202,19.0029,55.3755,29.4688,90.5415,29.4688
			c34.4648,0,65.6694-5.2275,74.6133-7.6123l0.2749-0.0791c4.2153-1.2988,15.4131-4.7471,15.4131-17.748v-30.8223
			c0-10.585-6.3989-17.1602-16.7002-17.1602h-0.9204l-0.6411,0.0273c-12.8101,1.0986-45.3843,3.6543-71.1196,3.6543
			c-39.8364,0-59.2012-25.6846-59.2012-78.5215v-67.6216c0-70.3813,33.7871-78.521,59.2012-78.521
			c25.7378,0,58.3105,2.5547,71.1201,3.6528l1.561,0.0273c10.3013,0,16.7002-6.5752,16.7002-17.1602v-30.8208
			C477.8618,609.2686,466.6631,605.8223,462.4473,604.5249z"/>
		<path fill="#127CC1" d="M688.3052,809.9473c38.7163-18.0562,59.1118-51.6011,59.1118-97.5122v-4.1401
			c0-71.877-49.7134-111.4614-139.9824-111.4614c-32.9614,0-66.2393,2.2114-91.2729,6.063
			c-5.2207,0.7832-21.1079,3.1655-21.1079,21.2173v316.4839c0,9.209,7.4917,16.7012,16.7002,16.7012h46.0005
			c9.1064,0,16.2397-7.3359,16.2397-16.7012V823.835c1.3169,0.0742,2.6763,0.1523,4.0605,0.2324
			c9.8447,0.5664,21.0029,1.209,29.3799,1.209h1.9644l64.0537,118.7666l0.4609,0.9316c2.2686,4.6094,6.0654,12.3242,15.4023,12.3242
			h56.1206c7.5444,0,13.0205-5.4766,13.0205-13.0215c0-1.3164,0-4.335-1.9468-7.4775L688.3052,809.9473z M668.9355,708.2949v4.1401
			c0,34.2881-15.519,45.8604-61.501,45.8604c-5.8711,0-22.7803-0.5498-33.4404-1.0142v-89.4629
			c10.0674-0.668,25.6401-1.2441,33.4404-1.2441C661.6289,666.5742,668.9355,687.6646,668.9355,708.2949z"/>
		<path fill="#127CC1" d="M834.6738,600.5132h-45.5405c-9.3647,0-16.7002,7.1338-16.7002,16.2402v323.8442
			c0,9.209,7.4917,16.7012,16.7002,16.7012h45.5405c9.2085,0,16.7002-7.4922,16.7002-16.7012V616.7534
			C851.374,607.647,844.0386,600.5132,834.6738,600.5132z"/>
		<path fill="#127CC1" d="M1166.791,600.5132h-37.7207c-9.9521,0-19.0444,5.8188-23.7461,15.2217l-67.7954,137.3862
			l-67.813-137.4214c-4.6836-9.3677-13.7759-15.1865-23.7285-15.1865h-37.7202c-14.2817,0-25.9004,11.6187-25.9004,25.9004v316.4849
			c0,8.3438,6.4429,14.4004,15.3203,14.4004h46.4604c8.0552,0,14.8604-7.6484,14.8604-16.7012V748.9409l34.1133,67.1724
			l0.103,0.1953c3.9468,7.2344,12.1099,11.7285,21.3042,11.7285h46.4609c9.1938,0,17.3569-4.4941,21.3042-11.7275l33.7573-67.1548
			v191.4429c0,9.0527,6.8047,16.7012,14.8594,16.7012h46.4609c8.8774,0,15.3203-6.0566,15.3203-14.4004V626.4136
			C1192.6914,612.1318,1181.0728,600.5132,1166.791,600.5132z"/>
		<path fill="#127CC1" d="M1285.9238,600.5132h-45.54c-9.3647,0-16.7002,7.1338-16.7002,16.2402v323.8442
			c0,9.209,7.4917,16.7012,16.7002,16.7012h45.54c9.209,0,16.7012-7.4922,16.7012-16.7012V616.7534
			C1302.625,607.647,1295.2891,600.5132,1285.9238,600.5132z"/>
		<path fill="#127CC1" d="M1590.9004,600.5132h-39.5605c-9.2588,0-16.2402,6.9819-16.2402,16.2402v220.9048l-98.8506-218.0684
			c-6.4199-13.9063-13.752-19.0767-27.0518-19.0767h-49.6797c-14.2813,0-25.9004,11.6187-25.9004,25.9004v314.1841
			c0,9.209,7.4922,16.7012,16.7002,16.7012h39.1006c9.1064,0,16.2402-7.3359,16.2402-16.7012V729.623l94.207,206.6621
			c9.3408,21.0137,23.5205,21.0137,34.9141,21.0137h46.4609c14.2813,0,25.9004-11.6191,25.9004-25.9004v-314.645
			C1607.1406,607.4951,1600.1592,600.5132,1590.9004,600.5132z"/>
		<path fill="#127CC1" d="M1906.5957,938.7129l-75.6777-289.333c-8.998-34.8672-32.9551-52.5464-71.2031-52.5464
			s-62.2051,17.6792-71.1973,52.5225l-75.4414,288.4243l-0.2441,0.9326v0.4307c-0.1777,0.6084-0.459,1.6016-0.459,2.835
			c0,8.5908,6.9307,15.3203,15.7793,15.3203h48.7617c7.3975,0,14.2803-5.8467,16.0439-13.6143l19.7578-81.6084h93.998
			l19.7578,81.6074c1.7627,7.7676,8.6465,13.6152,16.0439,13.6152h48.7617c8.8486,0,15.7793-6.7295,15.7793-15.3203
			c0-1.2354-0.2822-2.2285-0.4609-2.8398V938.7129z M1790.6602,794.6367h-61.8906l30.8594-127.3022
			c0.0293-0.1162,0.0576-0.2271,0.085-0.3335c0.0234,0.0898,0.0469,0.1836,0.0713,0.2803L1790.6602,794.6367z"/>
		<path fill="#127CC1" d="M2104.2539,891.2383h-84.6406c-21.2949,0-28.3809-4.6338-28.3809-32.0605V617.2134
			c0-9.2085-7.4922-16.7002-16.7012-16.7002h-45.541c-9.208,0-16.6992,7.4917-16.6992,16.7002v241.9644
			c0,90.2295,60.7959,101.8008,113.7617,101.8008c25.418,0,65.5957-3.3311,79.79-6.6084
			c7.4922-1.5176,15.1104-4.7471,15.1104-16.9912v-29.4414C2120.9531,898.7295,2113.4619,891.2383,2104.2539,891.2383z"/>
	</g>
</g>
</svg>
