<?xml version="1.0" encoding="UTF-8"?>
<!DOCTYPE svg PUBLIC "-//W3C//DTD SVG 1.1//EN" "http://www.w3.org/Graphics/SVG/1.1/DTD/svg11.dtd">
<!-- Creator: CorelDRAW 2019 (64 Bit) -->
<svg xmlns="http://www.w3.org/2000/svg" xml:space="preserve" width="37px" height="25px" version="1.1" style="shape-rendering:geometricPrecision; text-rendering:geometricPrecision; image-rendering:optimizeQuality; fill-rule:evenodd; clip-rule:evenodd"
viewBox="0 0 37 24.96"
 xmlns:xlink="http://www.w3.org/1999/xlink">
 <defs>
  <style type="text/css">
   <![CDATA[
    .fil2 {fill:none}
    .fil1 {fill:#FEFEFE}
    .fil0 {fill:#373435}
   ]]>
  </style>
 </defs>
 <g id="Layer_x0020_1">
  <metadata id="CorelCorpID_0Corel-Layer"/>
  <path class="fil0" d="M15.11 4.95c-0.51,-0.46 -0.98,-1.05 -1.21,-1.69 -0.1,-0.3 -0.21,-0.6 -0.32,-0.9 -0.08,-0.23 -0.07,-0.55 0.22,-0.57l1.13 -0.04c1.66,-0.08 3.33,-0.73 4.93,-1.14 3.04,-0.79 6.01,-0.8 9.06,-0.1 1.02,0.24 2.01,0.55 2.99,0.87 0.5,0.16 1.18,0.41 1.69,0.44 0.18,0.01 0.36,0.02 0.54,0.03 0.42,0.02 0.57,0.04 0.6,0.25 0.13,0.95 -0.33,1.97 -1.13,2.51 0.03,0.09 0.06,0.18 0.09,0.27 0.63,2.08 -0.31,4.46 -1.25,6.31 -0.24,0.46 -0.5,0.92 -0.78,1.36 -0.62,0.97 -1.29,1.91 -2.01,2.8 0.05,0.6 0.11,1.2 0.15,1.8 0.05,0.87 0.18,2.47 -0.41,3.16 -0.35,0.41 -0.83,0.63 -1.34,0.74l0.73 3.57 -1.06 0.27c-1.85,0.47 -6.27,-1.6 -8,-2.38 -1.26,-0.58 -2.52,-1.17 -3.79,-1.73 -0.92,-0.41 -1.96,-0.87 -2.93,-1.12 -0.7,-0.19 -1.4,-0.33 -2.11,-0.43 -3.35,-0.48 -6.99,-0.04 -10.34,0.3l-0.56 0.05 1.21 -1.77c0.79,-1.17 1.75,-2.3 2.68,-3.35 1.23,-1.38 2.52,-2.72 3.86,-4 1.29,-1.22 2.64,-2.4 4.05,-3.46 1,-0.75 2.15,-1.53 3.31,-2.05z"/>
  <path class="fil1" d="M15.62 5.03c-0.67,-0.52 -1.23,-1.18 -1.47,-1.85l-0.39 -1.12 1.18 -0.05c1.67,-0.07 3.37,-0.73 4.98,-1.15 3.01,-0.77 5.93,-0.79 8.94,-0.09 1.02,0.23 1.99,0.54 2.97,0.86 0.5,0.16 1.24,0.42 1.75,0.45l0.91 0.05 -0.09 0.91c-0.06,0.67 -0.56,1.13 -1.12,1.47 0.07,0.15 0.12,0.3 0.17,0.45 0.6,2 -0.33,4.33 -1.24,6.11 -0.23,0.46 -0.49,0.9 -0.77,1.34 -0.61,0.96 -1.32,1.96 -2.05,2.86 0.05,0.63 0.12,1.26 0.16,1.89 0.04,0.77 0.17,2.37 -0.35,2.98 -0.36,0.42 -0.89,0.62 -1.46,0.69l0.74 3.6 -0.81 0.2c-2.73,0.69 -11.23,-4.33 -14.6,-5.23 -3.76,-1 -7.36,-0.66 -12.54,-0.14l0.9 -1.31c2.33,-3.43 9.77,-11.23 14.19,-12.92zm-11.41 11.98c2.18,-3.22 8.37,-10.67 12.77,-11.47 -0.71,3.07 -0.32,7.31 3.65,8.55 -2.8,-2.03 -3.82,-4.94 -2.91,-9.01 -0.99,-0.16 -2.39,-1.2 -2.74,-2.2 1.74,-0.07 3.27,-0.68 5.16,-1.17 6.87,-1.77 11.4,1.13 13.39,1.25 -0.04,0.42 -0.56,0.78 -1.48,1.2 1.54,1.88 0.23,4.85 -0.62,6.51 -1,1.97 -2.94,4.31 -2.94,4.31 0.05,0.77 0.44,4.12 0.04,4.6 -0.3,0.36 -1.06,0.5 -2.23,0.37 -1.52,-0.18 -1.89,-0.75 -2.06,-1.67 -0.17,-0.93 -0.23,-2.37 -0.23,-2.37 0,0 -0.28,2.39 0.02,3.38 0.3,0.98 0.91,1.28 1.75,1.4 0.84,0.11 1.06,0.08 1.06,0.08l0.61 3.01c-1.66,0.42 -6.78,-2.1 -7.58,-2.61 -0.14,-1.47 0.39,-2.7 0.99,-3.85 -0.96,0.94 -1.72,2.23 -1.7,3.72 -3.55,-2.27 -6.72,-3.43 -11.3,-3.89 1.13,-2.46 2.2,-3.75 4.25,-5.52 -3.16,1.73 -3.68,3.19 -5.65,5.46l-2.25 -0.08z"/>
  <path class="fil2" d="M15.79 3.07c0,0 0.55,0.17 0.81,0.43 0.26,0.26 0.61,0.52 0.61,0.52 0,0 -0.75,-0.33 -1.07,-0.49 -0.32,-0.17 -0.35,-0.46 -0.35,-0.46z"/>
  <path class="fil1" d="M21.76 3.52c0,0 0.47,-0.48 1.47,-0.68 1.01,-0.2 1.26,0.44 1.83,0.77 0.57,0.32 1.52,0.47 1.52,0.47 0,0 -0.55,0.01 -0.98,0.11 -0.44,0.1 -0.73,0.21 -1.32,-0.06 -0.58,-0.28 -0.77,-0.45 -0.77,-0.45 0,0 0.28,-0.14 0.56,-0.16 0.29,-0.03 0.47,-0.03 0.47,-0.03 0,0 -0.66,-0.21 -1.52,-0.17 -0.85,0.03 -1.26,0.2 -1.26,0.2z"/>
  <path class="fil1" d="M28.35 4.13c0,0 0.84,-0.13 1.22,-0.47 0.39,-0.34 1.02,-0.41 1.39,-0.37 0.36,0.05 0.86,0.54 0.86,0.54 0,0 -0.7,-0.24 -1.17,-0.24 -0.47,0 -0.64,0.04 -0.64,0.04l0.67 0.23c0,0 -0.27,0.36 -1.08,0.41 -0.82,0.06 -1.25,-0.14 -1.25,-0.14z"/>
  <path class="fil1" d="M26.54 12.24c0,0 -0.28,-0.75 -0.48,-1.71 -0.19,-0.96 -0.16,-1.63 -0.16,-1.63 0,0 1.07,-0.45 2.25,-0.49 1.19,-0.05 2.14,0.4 2.14,0.4 0,0 0.07,1.31 -0.1,1.89 -0.18,0.58 -0.43,1.43 -0.43,1.43 0,0 -0.17,-1.6 -0.23,-2.09 -0.05,-0.49 -0.19,-1.1 -0.19,-1.1l-0.16 0.83c0,0 -0.17,-0.45 -0.5,-0.63 -0.32,-0.18 -0.98,-0.08 -1.14,0.05 -0.16,0.13 -0.29,0.63 -0.29,0.6 -0.01,-0.03 -0.36,-0.89 -0.36,-0.89 0,0 -0.19,1.15 -0.21,1.49 -0.02,0.35 -0.14,1.85 -0.14,1.85z"/>
  <path class="fil1" d="M25.65 16.82c0,0 0.25,1.34 0.3,1.45 0.05,0.11 0.11,0.13 0.11,0.13 0,0 0.03,-0.13 0.06,-0.15 0.03,-0.01 1.25,-0.05 1.3,0.01 0.05,0.07 0.15,0.19 0.15,0.19 0,0 0.14,-0.19 0.17,-0.38 0.03,-0.18 0.21,-1.31 0.21,-1.31 0,0 0.21,1.39 0.21,1.63 0,0.24 -0.64,0.58 -1.43,0.57 -0.8,-0.01 -1.33,-0.21 -1.36,-0.67 -0.04,-0.47 0.28,-1.47 0.28,-1.47z"/>
  <path class="fil1" d="M15.54 6.79c0,0 0.44,-0.3 2.27,-0.86 1.83,-0.56 3.62,-0.66 4.91,-0.6 1.29,0.06 2.29,0.46 2.29,0.46 0,0 -0.35,0.21 -0.44,0.39 -0.09,0.17 -0.09,0.14 -0.09,0.14 0,0 -2.05,-0.51 -3.96,-0.41 -1.92,0.11 -4.98,0.88 -4.98,0.88z"/>
  <path class="fil1" d="M15.15 8.94c0,0 1.67,-1.06 3.88,-1.73 2.22,-0.66 5.19,-0.38 5.19,-0.38 0,0 -0.07,0.17 -0.08,0.34 -0.02,0.17 -0.03,0.34 -0.03,0.34 0,0 -2.66,-0.28 -4.94,0.17 -2.28,0.46 -4.02,1.26 -4.02,1.26z"/>
  <path class="fil1" d="M14.88 11.08c0,0 1.31,-1.19 3.84,-2.15 2.54,-0.96 5.4,-0.97 5.4,-0.97l0.31 0.61c0,0 -2.93,-0.01 -5.49,0.77 -2.56,0.77 -4.06,1.74 -4.06,1.74z"/>
  <path class="fil1" d="M26.81 5.53c0,0 0.52,-0.52 1.3,-0.68 0.79,-0.16 2.01,0.67 2.01,0.67 0,0 -0.64,0.01 -1.04,0.55 -0.4,0.54 -0.46,1.05 -0.46,1.05 0,0 -0.26,-0.75 -0.84,-1.13 -0.59,-0.37 -0.97,-0.46 -0.97,-0.46z"/>
  <path class="fil0" d="M33.9 6.07l0.06 0c1.2,0.02 2.48,0.66 2.48,0.66 -0.7,-0.67 -1.62,-0.96 -2.57,-1.05 0.01,0.13 0.02,0.26 0.03,0.39zm-0.24 2.06c1.31,0.16 3.34,0.95 3.34,0.95 0,0 -0.91,-0.86 -2.32,-1.23 -0.31,-0.08 -0.62,-0.13 -0.92,-0.15 -0.03,0.14 -0.07,0.29 -0.1,0.43zm0.2 -1.07c1.33,0.09 2.67,0.53 2.67,0.53 0,0 -0.89,-0.79 -2.09,-0.92 -0.18,-0.02 -0.36,-0.03 -0.55,-0.04 0,0.15 -0.01,0.29 -0.03,0.43z"/>
  <path class="fil1" d="M33.6 5.66c0.02,0.14 0.03,0.27 0.03,0.41 -1.08,0.01 -2.03,0.18 -2.03,0.18l-0.29 -0.4c0.72,-0.14 1.51,-0.23 2.29,-0.19zm0.03 0.97c-0.01,0.14 -0.02,0.28 -0.03,0.42 -1.22,-0.04 -1.77,0.28 -1.77,0.28 0,0 0,-0.11 0,-0.25 0,-0.15 -0.04,-0.34 -0.04,-0.34 0,0 0.88,-0.12 1.84,-0.11zm-0.14 1.05c-0.03,0.15 -0.06,0.29 -0.1,0.43 -1.28,-0.07 -1.9,0.24 -1.9,0.24 0,0 0.01,-0.01 0.13,-0.18 0.13,-0.17 0.18,-0.36 0.18,-0.36 0,0 0.75,-0.16 1.69,-0.13z"/>
 </g>
</svg>
